<svg height="488pt" viewBox="-5 0 488 488.53611" width="488pt" xmlns="http://www.w3.org/2000/svg" xmlns:xlink="http://www.w3.org/1999/xlink"><linearGradient id="lg1"><stop offset="0" stop-color="#00efd1"/><stop offset="1" stop-color="#00acea"/></linearGradient><linearGradient id="linear0" gradientUnits="userSpaceOnUse" x1="239.694516" x2="239.694516" xlink:href="#lg1" y1="25.178106" y2="438.676106"/><linearGradient id="linear1" gradientUnits="userSpaceOnUse" x1="358.676516" x2="358.676516" xlink:href="#lg1" y1="25.178106" y2="438.676106"/><linearGradient id="linear2" gradientUnits="userSpaceOnUse" x1="167.522516" x2="167.522516" xlink:href="#lg1" y1="25.178106" y2="438.676106"/><linearGradient id="linear3" gradientUnits="userSpaceOnUse" x1="167.620516" x2="167.620516" xlink:href="#lg1" y1="25.178106" y2="438.676106"/><path d="m376.820312 250.117188c-26.46875-4.074219-53.542968.8125-76.917968 13.890624-13.671875-9.589843-29.972656-14.726562-46.671875-14.710937h-46.800781c-1.917969.046875-3.707032.996094-4.824219 2.558594l-34.625 46.921875-33.207031-46.863282c-1.117188-1.605468-2.933594-2.578124-4.890626-2.617187h-46.773437c-23.175781.0625-45.246094 9.914063-60.765625 27.125-15.339844 17.222656-22.84375 40.035156-20.722656 63v70.894531c-.015625 1.582032.601562 3.105469 1.714844 4.230469 1.117187 1.121094 2.632812 1.753906 4.214843 1.75h241.726563c3.621094 8.203125 8.121094 15.992187 13.414062 23.230469 18.894532 25.792968 47.328125 42.945312 78.957032 47.632812 6.011718.914063 12.082031 1.375 18.160156 1.375 58.429687 0 109.847656-42.597656 118.890625-101.871094 4.757812-31.488281-3.203125-63.574218-22.128907-89.1875-18.921874-25.613281-47.253906-42.652343-78.75-47.359374zm-261.722656 11.179687h10.6875l31.835938 44.957031-46.949219 19.257813zm45.523438 143h-148v-65.167969c0-.203125-.042969-.402344-.066406-.601562-2.007813-19.695313 4.402343-39.324219 17.652343-54.039063 13.25-14.710937 32.101563-23.136719 51.902344-23.191406h20.960937l-5.035156 73.089844c-.144531 2.085937.792969 4.101562 2.476563 5.339843 1.679687 1.222657 3.871093 1.492188 5.792969.710938l54.316406-22.320312zm48.839844-143h10.742187l4.171875 64.363281-48.054688-19.449218zm34.335937 143h-71.175781v-86.457031l56.113281 22.644531c1.910156.773437 4.085937.507813 5.761719-.699219 1.675781-1.257812 2.605468-3.28125 2.46875-5.375l-4.734375-73.113281h21c12.503906 0 24.773437 3.382813 35.511719 9.785156-42.207032 30.019531-60.339844 83.761719-44.945313 133.214844zm222.039063-19.441406c-8.140626 53.34375-54.425782 91.683593-107.035157 91.683593-5.472656-.003906-10.941406-.417968-16.355469-1.238281-28.347656-4.226562-53.851562-19.554687-70.886718-42.601562-17.035156-23.050781-24.207032-51.925781-19.929688-80.265625 8.140625-53.347656 54.429688-91.683594 107.035156-91.683594 5.476563 0 10.941407.414062 16.355469 1.234375 28.347657 4.226563 53.851563 19.554687 70.886719 42.605469 17.035156 23.046875 24.207031 51.925781 19.929688 80.265625zm0 0" fill="url(#linear0)"/><path d="m358.734375 313.960938c13.246094.015624 23.984375 10.75 24 24-.03125 2.152343 1.101563 4.152343 2.960937 5.238281 1.859376 1.082031 4.160157 1.082031 6.019532 0 1.859375-1.085938 2.992187-3.085938 2.960937-5.238281-.046875-17.566407-12.734375-32.550782-30.054687-35.488282v-10.996094c0-3.3125-2.6875-6-6-6s-6 2.6875-6 6v10.996094c-18.453125 3.136719-31.421875 19.890625-29.832032 38.542969 1.585938 18.648437 17.199219 32.96875 35.914063 32.945313 13.105469.125 23.691406 10.742187 23.773437 23.847656.082032 13.105468-10.363281 23.855468-23.46875 24.144531-.097656 0-.183593-.011719-.277343-.011719-.097657 0-.1875.007813-.28125.011719-13.136719-.167969-23.703125-10.855469-23.71875-23.992187-.042969-3.296876-2.726563-5.949219-6.027344-5.949219-3.296875 0-5.984375 2.652343-6.027344 5.949219 0 17.546874 12.648438 32.535156 29.945313 35.492187v12.355469c0 3.316406 2.6875 6 6 6s6-2.683594 6-6v-12.355469c18.460937-3.089844 31.476562-19.8125 29.933594-38.46875-1.546876-18.65625-17.132813-33.011719-35.851563-33.023437-13.253906-.007813-23.992187-10.757813-23.984375-24.015626.007812-13.253906 10.757812-23.992187 24.015625-23.984374zm0 0" fill="url(#linear1)"/><path d="m91.972656 196.339844 72.402344 47.390625c1.980469 1.296875 4.535156 1.304687 6.527344.027343l73.765625-47.394531c1.738281-1.113281 2.777343-3.042969 2.757812-5.105469l-1.367187-132.789062c0-1.03125-.023438-2.070312-.078125-3.085938-.90625-17.378906-9.621094-33.414062-23.707031-43.628906-14.59375-10.78125-33.277344-14.386718-50.832032-9.816406l-40.0625 10.359375h-13.789062c-16.46875.050781-29.832032 13.34375-29.96875 29.8125v36.457031l1.5 112.824219c.078125 2.019531 1.144531 3.867187 2.851562 4.949219zm143.417969-8.292969-67.699219 43.511719-66.472656-43.511719-.511719-42.375 1.191407.835937c5.03125 3.769532 11.15625 5.800782 17.441406 5.789063h14.550781c8.09375.015625 15.824219-3.363281 21.3125-9.3125 3.210937-3.480469 7.730469-5.457031 12.46875-5.449219 4.734375.011719 9.246094 2.003906 12.445313 5.496094.019531.023438.035156-.015625.054687 0 5.484375 5.921875 13.191406 9.277344 21.257813 9.265625h14.546874c6.289063.011719 12.410157-2.019531 17.445313-5.789063l1.53125-1.128906zm-.589844-57.566406-8.621093 6.457031c-2.945313 2.195312-6.527344 3.375-10.199219 3.359375h-14.550781c-4.726563.019531-9.246094-1.945313-12.457032-5.414063-.019531-.019531-.039062-.003906-.058594-.027343-5.488281-5.933594-13.203124-9.304688-21.285156-9.300781-8.085937.003906-15.796875 3.382812-21.28125 9.320312-3.210937 3.472656-7.726562 5.4375-12.457031 5.421875h-14.550781c-3.671875.015625-7.253906-1.160156-10.199219-3.359375l-8.617187-6.488281-.378907-31.355469c5.769531-25.441406 24.371094-23.878906 56.742188-18.953125 26.480469 4.035156 58.378906 8.902344 77.226562-16.359375zm-135.179687-88.371094c.128906-9.84375 8.125-17.765625 17.96875-17.8125h14.558594c.507812.019531 1.015624-.023437 1.511718-.132813l40.796875-10.582031c14.058594-3.671875 29.023438-.792969 40.71875 7.832031 7.523438 5.484376 13.214844 13.117188 16.320313 21.894532-12.71875 34.125-42.058594 29.683594-72.941406 24.976562-21.21875-3.234375-43.933594-6.777344-58.933594 6.386719zm0 0" fill="url(#linear2)"/><path d="m181.621094 175.296875h-28c-3.3125 0-6 2.6875-6 6s2.6875 6 6 6h28c3.3125 0 6-2.6875 6-6s-2.6875-6-6-6zm0 0" fill="url(#linear3)"/></svg>