<svg height="482pt" viewBox="0 0 482 482.00307" width="482pt" xmlns="http://www.w3.org/2000/svg" xmlns:xlink="http://www.w3.org/1999/xlink"><linearGradient id="lg1"><stop offset="0" stop-color="#00efd1"/><stop offset="1" stop-color="#00acea"/></linearGradient><linearGradient id="linear0" gradientUnits="userSpaceOnUse" x1="241.001535" x2="241.001535" xlink:href="#lg1" y1="21.882537" y2="435.380537"/><linearGradient id="linear1" gradientUnits="userSpaceOnUse" x1="367.787535" x2="367.787535" xlink:href="#lg1" y1="21.882537" y2="435.380537"/><path d="m476.578125 200.535156-46.820313-4.511718c-4.851562-20.121094-12.933593-39.316407-23.9375-56.84375l29.835938-36.027344c1.964844-2.375 1.8125-5.851563-.351562-8.042969l-48.046876-48.664063c-2.1875-2.214843-5.703124-2.390624-8.101562-.40625l-36.070312 29.875c-17.546876-10.941406-36.71875-19.03125-56.800782-23.976562l-4.511718-46.664062c-.3125-3.046876-2.910157-5.3437505-5.972657-5.273438h-68.988281c-3.058594-.0664062-5.660156 2.226562-5.972656 5.273438l-4.511719 46.738281c-20.113281 4.839843-39.3125 12.910156-56.839844 23.902343l-36.027343-29.855468c-2.382813-1.976563-5.878907-1.816406-8.070313.367187l-48.664063 48.660157c-2.1875 2.1875-2.351562 5.683593-.378906 8.066406l29.871094 36.074218c-10.9375 17.550782-19.03125 36.71875-23.972656 56.800782l-46.820313 4.511718c-3.074219.296876-5.42187475 2.878907-5.425781 5.96875v68.992188c0 3.09375 2.347656 5.679688 5.425781 5.972656l46.820313 4.511719c4.847656 20.121094 12.933594 39.316406 23.9375 56.84375l-29.835938 36.03125c-1.976562 2.382813-1.8125 5.878906.378906 8.066406l48.664063 48.664063c2.1875 2.191406 5.683594 2.351562 8.070313.378906l36.070312-29.875c17.550781 10.941406 36.722656 19.03125 56.800781 23.976562l4.511719 46.664063c.316406 3.042969 2.914062 5.335937 5.96875 5.265625h68.988281c3.0625.070312 5.660157-2.222656 5.972657-5.269531l3.484374-36.0625c21.007813 23.324219 50.925782 36.640625 82.316407 36.632812 61.128906 0 110.859375-49.597656 110.859375-110.582031.003906-31.179688-13.195313-60.902344-36.335938-81.800781l34.5-3.453125c3.066406-.308594 5.398438-2.882813 5.402344-5.964844v-68.988281c.003906-3.09375-2.34375-5.683594-5.421875-5.976563zm-10.144531 166.199219c0 54.371094-44.347656 98.597656-98.859375 98.597656-32.542969.003907-63.007813-16.003906-81.464844-42.804687-.242187-.496094-.554687-.957032-.925781-1.367188-10.757813-16.113281-16.492188-35.054687-16.46875-54.429687 0-54.371094 44.347656-98.601563 98.859375-98.601563s98.859375 44.238282 98.859375 98.609375zm-209.015625 12.441406c-5.332031.617188-10.695313.925781-16.0625.929688-26.351563.105469-52.167969-7.398438-74.355469-21.613281v-31.703126c0-8.453124 3.371094-16.5625 9.363281-22.527343 5.992188-5.964844 14.113281-9.296875 22.570313-9.261719h13.78125c2.542968 13.542969 14.371094 23.355469 28.148437 23.355469 13.777344 0 25.605469-9.8125 28.144531-23.355469h14.0625c.125 0 .25-.097656.375-.097656-17.257812 19.949218-26.75 45.453125-26.730468 71.835937 0 4.152344.234375 8.308594.703125 12.4375zm-16.253907-110.175781h-.300781c-10.445312.125-20.511719-3.902344-27.992187-11.195312-7.535156-7.261719-11.816406-17.261719-11.871094-27.726563v-3.746094c26.324219-4.855469 49.273438-20.824219 62.984375-43.8125 1.875.640625 3.664063 1.511719 5.316406 2.601563 7.015625 4.769531 11.105469 12.792968 10.851563 21.269531l-.152344 4.480469v18.636718c0 21.894532-17.265625 39.492188-38.835938 39.492188zm15.835938 9.679688v10.8125c0 9.113281-7.386719 16.5-16.5 16.5-9.109375 0-16.5-7.386719-16.5-16.5v-10.746094c5.472656 1.617187 11.160156 2.378906 16.859375 2.253906h.390625c5.347656.152344 10.675781-.632812 15.75-2.320312zm-66.808594-38.617188c-5.433594-10.296875-8.496094-21.679688-8.957031-33.3125-.425781-9.910156 1.652344-19.765625 6.046875-28.65625 7.429688-14.910156 21.535156-26.300781 38.652344-31.242188 9.628906-2.980468 20.042968-2.121093 29.054687 2.398438 8.496094 4.421875 15.148438 11.714844 18.777344 20.578125l.242187.71875c.980469 2.953125 4.054688 4.664063 7.082032 3.945313 1.667968-.390626 10.230468-1.667969 15.726562 11.957031 5.445313 13.492187 5.140625 28.824219-.867187 43.160156-1.351563 3.09375-2.894531 6.097656-4.617188 9 .488281-3.007813.710938-6.050781.667969-9.09375v-18.550781l.203125-4.390625c.320313-12.5625-5.796875-24.417969-16.222656-31.4375-4.183594-2.839844-8.960938-4.691407-13.96875-5.40625-2.464844-.34375-4.882813.878906-6.070313 3.066406-20.519531 37.554687-56.917968 41.898437-59.898437 42.199219-3.851563.144531-6.933594 3.253906-7.042969 7.105468v7.976563c.074219 3.359375.472656 6.703125 1.191406 9.984375zm78.808594 41.140625c4.472656-3.433594 8.71875-7.148437 12.714844-11.121094 11.457031-11.441406 20.007812-23.5 25.179687-35.839843 7.234375-17.273438 7.628907-35.84375.988281-52.289063-5.019531-12.4375-14.253906-19.734375-24.445312-19.75-10.769531-22.835937-36.679688-34.289063-60.816406-26.882813-20.328125 5.875-37.101563 19.515626-46.027344 37.421876-5.3125 10.699218-7.84375 22.5625-7.351562 34.5 1.242187 30.09375 17.757812 58.097656 42.757812 72.414062v3.34375h-13.066406c-11.636719-.035156-22.8125 4.566406-31.054688 12.78125-8.242187 8.214844-12.875 19.375-12.878906 31.011719v23.152343c-33.273438-26.375-52.695312-66.484374-52.75-108.945312 0-76.699219 62.378906-139.101562 139.082031-139.101562s139.09375 62.402343 139.09375 139.101562c-.007812 5.273438-.308593 10.539062-.90625 15.777344-31.128906-3.375-62.226562 6.609375-85.574219 27.464844-3.558593-.863282-7.214843-1.28125-10.875-1.242188h-14.070312zm201-11.136719-41.707031 4.179688c-11.25-7.382813-23.757813-12.648438-36.90625-15.535156.683593-5.878907 1.027343-11.792969 1.027343-17.710938 0-83.320312-67.785156-151.101562-151.105468-151.101562-83.320313 0-151.105469 67.78125-151.105469 151.101562s67.785156 151.105469 151.097656 151.105469c6.050781 0 12.09375-.359375 18.101563-1.074219 2.878906 12.6875 8.003906 24.761719 15.132812 35.644531l-4.179687 43.324219h-58.09375l-4.402344-45.546875c-.257813-2.582031-2.164063-4.695313-4.707031-5.210937-21.660156-4.800782-42.273438-13.484376-60.84375-25.628907-2.203125-1.414062-5.070313-1.234375-7.078125.441407l-35.21875 29.171874-40.9375-40.933593 29.164062-35.210938c1.6875-2.042969 1.839844-4.949219.371094-7.15625-12.238281-18.492187-20.925781-39.097656-25.617187-60.769531-.554688-2.550781-2.691407-4.449219-5.289063-4.699219l-45.699219-4.402343v-58.097657l45.699219-4.402343c2.597656-.25 4.738281-2.152344 5.289063-4.703126 4.816406-21.664062 13.511718-42.28125 25.664062-60.851562 1.421875-2.199219 1.25-5.0625-.417969-7.078125l-29.164062-35.21875 40.9375-40.9375 35.21875 29.160156c2.039062 1.691407 4.949219 1.84375 7.152343.371094 18.492188-12.234375 39.101563-20.921875 60.769532-25.613281 2.53125-.484375 4.445312-2.570313 4.707031-5.136719l4.402344-45.546875h58.09375l4.40625 45.550781c.253906 2.578125 2.160156 4.691407 4.699219 5.210938 21.660156 4.800781 42.277343 13.484375 60.84375 25.625 2.207031 1.414062 5.070312 1.238281 7.082031-.4375l35.191406-29.148438 40.375 40.882813-29.1875 35.242187c-1.6875 2.039063-1.839844 4.949219-.371094 7.152344 12.238281 18.492187 20.921875 39.101563 25.617188 60.769531.550781 2.554688 2.6875 4.457032 5.289062 4.707032l45.699219 4.398437zm0 0" fill="url(#linear0)"/><path d="m367.574219 312.054688c13.246093.015624 23.984375 10.753906 24 24 0 3.316406 2.6875 6 6 6 3.355469.015624 6.113281-2.644532 6.214843-6 .066407-17.515626-12.523437-32.519532-29.789062-35.488282v-10.996094c0-3.3125-2.683594-6-6-6-3.3125 0-6 2.6875-6 6v10.996094c-18.488281 3-31.582031 19.6875-30.097656 38.359375 1.484375 18.675781 17.046875 33.085938 35.777344 33.128907 13.089843.179687 23.621093 10.808593 23.675781 23.898437.054687 13.089844-10.386719 23.808594-23.472657 24.09375-.101562 0-.203124-.011719-.300781-.011719-.101562 0-.195312.007813-.289062.011719-13.136719-.167969-23.703125-10.855469-23.722657-23.992187 0-3.3125-2.6875-6-6-6-1.570312.007812-3.070312.652343-4.15625 1.78125-1.089843 1.128906-1.679687 2.652343-1.628906 4.21875.121094 17.597656 12.863282 32.566406 30.214844 35.492187v12.355469c0 3.3125 2.6875 6 6 6 3.316406 0 6-2.6875 6-6v-12.355469c18.414062-3.238281 31.289062-20.023437 29.644531-38.644531-1.648437-18.625-17.269531-32.890625-35.964843-32.847656-13.253907.03125-24.023438-10.691407-24.050782-23.945313-.03125-13.253906 10.691406-24.023437 23.945313-24.054687zm0 0" fill="url(#linear1)"/></svg>