<svg height="498pt" viewBox="-29 0 498 498.02002" width="498pt" xmlns="http://www.w3.org/2000/svg" xmlns:xlink="http://www.w3.org/1999/xlink"><linearGradient id="lg1"><stop offset="0" stop-color="#00efd1"/><stop offset="1" stop-color="#00acea"/></linearGradient><linearGradient id="linear0" gradientUnits="userSpaceOnUse" x1="220.178156" x2="220.178156" xlink:href="#lg1" y1="48.827" y2="447.912"/><linearGradient id="linear1" gradientUnits="userSpaceOnUse" x1="219.678156" x2="219.678156" xlink:href="#lg1" y1="48.827" y2="447.912"/><linearGradient id="linear3" gradientUnits="userSpaceOnUse" x1="63.678156" x2="63.678156" xlink:href="#lg1" y1="48.827" y2="447.912"/><linearGradient id="linear4" gradientUnits="userSpaceOnUse" x1="64.176156" x2="64.176156" xlink:href="#lg1" y1="48.827" y2="447.912"/><linearGradient id="linear5" gradientUnits="userSpaceOnUse" x1="375.678156" x2="375.678156" xlink:href="#lg1" y1="48.827" y2="447.912"/><linearGradient id="linear6" gradientUnits="userSpaceOnUse" x1="376.180156" x2="376.180156" xlink:href="#lg1" y1="48.827" y2="447.912"/><path d="m66.179688 357.347656c3.3125 0 6-2.6875 6-6v-16.347656h142v12.953125c0 3.3125 2.683593 6 6 6 3.3125 0 6-2.6875 6-6v-12.953125h142v16.347656c0 3.3125 2.683593 6 6 6 3.3125 0 6-2.6875 6-6v-22.417968c.011718-1.578126-.605469-3.09375-1.722657-4.207032-1.113281-1.117187-2.628906-1.734375-4.203125-1.722656h-308.117187c-1.582031-.015625-3.101563.605469-4.222657 1.71875-1.117187 1.113281-1.742187 2.628906-1.734374 4.210938v22.417968c0 3.3125 2.683593 6 6 6zm0 0" fill="url(#linear0)"/><path d="m252.179688 395.535156c0-17.414062-14.121094-31.535156-31.539063-31.535156h-1.925781c-17.417969 0-31.535156 14.121094-31.535156 31.535156v4.929688c0 17.414062 14.117187 31.535156 31.535156 31.535156h1.925781c17.417969 0 31.539063-14.121094 31.539063-31.535156zm-12 4.929688c0 10.789062-8.746094 19.535156-19.539063 19.535156h-1.925781c-10.789063 0-19.535156-8.746094-19.535156-19.535156v-4.929688c0-10.789062 8.746093-19.535156 19.535156-19.535156h1.925781c10.792969 0 19.539063 8.746094 19.539063 19.535156zm0 0" fill="url(#linear1)"/><path d="m251.011719 431h-6.648438c-1.453125.03125-2.847656.582031-3.929687 1.554688l-20.183594 17.535156-19.390625-17.488282c-1.097656-1.007812-2.523437-1.578124-4.011719-1.601562h-7.5c-9.4375.039062-18.417968 4.066406-24.730468 11.082031-6.300782 6.917969-9.367188 16.1875-8.441407 25.5v24.4375c-.011719 1.589844.609375 3.117188 1.730469 4.242188 1.117188 1.128906 2.640625 1.761719 4.230469 1.757812l116.074219-.011719c1.589843-.003906 3.109374-.636718 4.230468-1.761718 1.117188-1.128906 1.742188-2.652344 1.734375-4.238282v-24.425781c.929688-9.3125-2.140625-18.578125-8.441406-25.5-6.308594-7.015625-15.285156-11.039062-24.722656-11.082031zm21.222656 35.6875c-.027344.203125-.046875.402344-.054687.605469v18.714843l-104 .011719v-18.726562c-.011719-.203125-.03125-.402344-.058594-.605469-.621094-6.023438 1.332031-12.03125 5.371094-16.542969 4.042968-4.507812 9.800781-7.101562 15.859374-7.144531h5.199219l21.621094 19.511719c.585937.542969 1.273437.964843 2.023437 1.242187 2.042969.6875 4.300782.234375 5.914063-1.191406l22.492187-19.5625h4.410157c6.058593.042969 11.8125 2.636719 15.855469 7.148438 4.039062 4.511718 5.988281 10.515624 5.367187 16.539062zm0 0" fill="url(#linear0)"/><path d="m96.179688 395.535156c0-17.414062-14.121094-31.535156-31.539063-31.535156h-1.925781c-17.417969 0-31.535156 14.121094-31.535156 31.535156v4.929688c0 17.414062 14.117187 31.535156 31.535156 31.535156h1.925781c17.417969 0 31.539063-14.121094 31.539063-31.535156zm-12 4.929688c0 10.789062-8.746094 19.535156-19.539063 19.535156h-1.925781c-10.789063 0-19.535156-8.746094-19.535156-19.535156v-4.929688c0-10.789062 8.746093-19.535156 19.535156-19.535156h1.925781c10.792969 0 19.539063 8.746094 19.539063 19.535156zm0 0" fill="url(#linear3)"/><path d="m94.917969 431h-6.648438c-1.453125.03125-2.847656.582031-3.929687 1.554688l-20.183594 17.535156-19.394531-17.488282c-1.09375-1.007812-2.519531-1.578124-4.007813-1.601562h-7.5c-9.421875.042969-18.386718 4.066406-24.675781 11.082031-6.289063 6.925781-9.34375 16.191407-8.398437 25.5v24.4375c-.035157 1.582031.570312 3.113281 1.679687 4.242188 1.109375 1.128906 2.625 1.761719 4.207031 1.757812l116.113282-.011719c3.3125 0 6-2.6875 6-6v-24.425781c.910156-9.316406-2.175782-18.585937-8.492188-25.5-6.324219-7.019531-15.320312-11.042969-24.769531-11.082031zm21.269531 35.6875c-.019531.199219-.007812.402344-.007812.605469v18.714843l-104 .011719v-18.726562c-.023438-.203125-.058594-.40625-.101563-.605469-.628906-6.019531 1.308594-12.023438 5.34375-16.535156 4.03125-4.507813 9.78125-7.109375 15.832031-7.152344h5.203125l21.621094 19.511719c2.226563 2.09375 5.691406 2.117187 7.941406.050781l22.488281-19.5625h4.410157c6.058593.039062 11.824219 2.632812 15.871093 7.140625 4.050782 4.511719 6.007813 10.519531 5.398438 16.546875zm0 0" fill="url(#linear4)"/><path d="m408.179688 395.535156c0-17.414062-14.121094-31.535156-31.539063-31.535156h-1.925781c-17.417969 0-31.535156 14.121094-31.535156 31.535156v4.929688c0 17.414062 14.117187 31.535156 31.535156 31.535156h1.925781c17.417969 0 31.539063-14.121094 31.539063-31.535156zm-12 4.929688c0 10.789062-8.746094 19.535156-19.539063 19.535156h-1.925781c-10.789063 0-19.535156-8.746094-19.535156-19.535156v-4.929688c0-10.789062 8.746093-19.535156 19.535156-19.535156h1.925781c10.792969 0 19.539063 8.746094 19.539063 19.535156zm0 0" fill="url(#linear5)"/><path d="m407.109375 431h-6.652344c-1.453125.03125-2.847656.582031-3.929687 1.554688l-20.183594 17.535156-19.394531-17.488282c-1.09375-1.007812-2.519531-1.578124-4.007813-1.601562h-7.5c-9.449218.039062-18.445312 4.0625-24.777344 11.082031-6.3125 6.914063-9.398437 16.179688-8.488281 25.5v24.4375c.019531 3.316407 2.710938 6 6.03125 6l116.039063-.011719c1.582031-.003906 3.101562-.640624 4.214844-1.765624 1.113281-1.128907 1.730468-2.652344 1.714843-4.234376v-24.425781c.941407-9.308593-2.109375-18.574219-8.402343-25.5-6.285157-7.011719-15.246094-11.039062-24.664063-11.082031zm21.171875 35.6875c-.042969.199219-.078125.402344-.101562.605469v18.714843l-104 .011719v-18.726562c0-.199219.007812-.398438-.011719-.605469-.609375-6.03125 1.351562-12.039062 5.402343-16.546875 4.050782-4.507813 9.8125-7.101563 15.875-7.140625h5.199219l21.621094 19.511719c.589844.542969 1.277344.964843 2.03125 1.242187 2.039063.6875 4.292969.234375 5.910156-1.191406l22.488281-19.5625h4.414063c6.050781.042969 11.800781 2.644531 15.832031 7.152344 4.035156 4.511718 5.972656 10.519531 5.339844 16.535156zm0 0" fill="url(#linear6)"/><path d="m253.179688 33.378906c0-18.433594-14.945313-33.378906-33.378907-33.378906h-.242187c-18.4375 0-33.382813 14.945312-33.378906 33.378906v11.242188c-.003907 18.433594 14.941406 33.378906 33.378906 33.378906h.242187c18.433594 0 33.378907-14.945312 33.378907-33.378906zm-12 11.242188c0 11.808594-9.574219 21.378906-21.378907 21.378906h-.242187c-11.808594 0-21.378906-9.570312-21.378906-21.378906v-11.242188c0-11.808594 9.570312-21.378906 21.378906-21.378906h.242187c11.804688 0 21.378907 9.570312 21.378907 21.378906zm0 0" fill="url(#linear1)"/><path d="m153.179688 166.367188c.074218 9.894531 4.140624 19.339843 11.269531 26.199218l5.03125 4.785156c4.492187 4.308594 7.164062 10.179688 7.464843 16.398438l4.378907 91.480469c.15625 3.214843 2.792969 5.746093 6.011719 5.769531h65.835937c3.210937-.027344 5.84375-2.558594 5.992187-5.769531l4.363282-91.515625c.285156-6.191406 2.917968-12.039063 7.363281-16.355469l5.109375-4.828125c7.070312-6.859375 11.097656-16.265625 11.179688-26.117188v-53.347656c.878906-9.703125-2.363282-19.328125-8.9375-26.519531-6.609376-7.296875-15.980469-11.488281-25.828126-11.546875h-5.429687c-2.554687.0625-4.804687 1.699219-5.644531 4.113281l-6.183594 17.269531-11.03125-11.699218c-1.15625-1.21875-2.769531-1.898438-4.449219-1.871094-1.683593.023438-3.273437.75-4.394531 2.003906l-9.9375 11.113282-5.371094-16.644532c-.789062-2.503906-3.085937-4.226562-5.707031-4.285156h-6.316406c-9.847657.058594-19.222657 4.25-25.835938 11.550781-6.570312 7.1875-9.816406 16.8125-8.933593 26.515625zm66.683593-68.660157 5.257813 5.59375 7.035156 65.53125-11.976562 11.980469-11.980469-11.980469 7.089843-66.015625zm-48.691406-3.105469c4.25-4.8125 10.355469-7.578124 16.777344-7.601562h1.960937l7.25 22.414062c.710938 2.203126 2.609375 3.808594 4.898438 4.140626l-6.097656 56.8125c-.195313 1.8125.4375 3.613281 1.722656 4.902343l18.253906 18.261719c2.339844 2.34375 6.136719 2.347656 8.484375.007812l18.257813-18.253906c1.28125-1.285156 1.914062-3.078125 1.722656-4.882812l-6.101563-56.769532c.136719-.019531.273438-.03125.414063-.058593 2.058594-.484375 3.730468-1.988281 4.425781-3.988281l8.0625-22.585938h1.210937c6.414063.09375 12.496094 2.855469 16.792969 7.617188 4.292969 4.761718 6.414063 11.09375 5.847657 17.484374-.019532.199219.125.472657.125.675782v53.640625c-.074219 6.609375-2.792969 12.914062-7.546876 17.503906l-5.03125 4.820313c-6.640624 6.449218-10.582031 15.183593-11.023437 24.429687l-4.128906 85.828125h-54.394531l-4.085938-85.765625c-.425781-9.28125-4.390625-18.042969-11.078125-24.492187l-5.097656-4.800782c-4.796875-4.597656-7.539063-10.933594-7.613281-17.574218v-53.589844c0-.203125.140624-.476563.121093-.679688-.621093-6.402344 1.511719-12.765625 5.871094-17.496094zm0 0" fill="url(#linear0)"/></svg>