<svg height="509pt" viewBox="0 -50 509.74572 509" width="509pt" xmlns="http://www.w3.org/2000/svg" xmlns:xlink="http://www.w3.org/1999/xlink"><linearGradient id="lg1"><stop offset="0" stop-color="#00efd1"/><stop offset="1" stop-color="#00acea"/></linearGradient><linearGradient id="linear0" gradientUnits="userSpaceOnUse" x1="301.837814" x2="301.837814" xlink:href="#lg1" y1="4.55086" y2="403.63586"/><linearGradient id="linear1" gradientUnits="userSpaceOnUse" x1="207.919814" x2="207.919814" xlink:href="#lg1" y1="4.55086" y2="403.63586"/><linearGradient id="linear2" gradientUnits="userSpaceOnUse" x1="254.878814" x2="254.878814" xlink:href="#lg1" y1="4.55086" y2="403.63586"/><path d="m508.683594 227.773438-55.753906-80.796876c-1.121094-1.625-2.964844-2.59375-4.9375-2.59375-1.972657 0-3.820313.96875-4.9375 2.59375l-55.757813 80.796876c-1.265625 1.75-1.410156 4.074218-.375 5.96875 1.066406 1.917968 3.121094 3.074218 5.3125 2.980468h47.765625c-6.625 45-30.15625 86.195313-66.632812 115.925782-34.46875 28.089843-77.789063 44.3125-118.851563 44.3125-26.789063 0-54.792969-6.800782-80.980469-19.78125-26.894531-13.253907-50.433594-32.429688-68.851562-56.09375-2.042969-2.570313-5.777344-3.019532-8.375-1.011719-2.597656 2.007812-3.101563 5.734375-1.128906 8.359375 19.53125 25.113281 44.496093 45.476562 73.027343 59.554687 27.835938 13.796875 57.679688 21.085938 86.3125 21.085938 43.773438 0 89.855469-17.320313 126.429688-47.125 39.285156-32.019531 64.457031-76.226563 71.167969-125.226563h51.628906c2.191406.09375 4.25-1.0625 5.3125-2.980468 1.035156-1.894532.890625-4.21875-.375-5.96875zm-105.019532-3.050782 44.328126-64.234375 44.324218 64.234375zm0 0" fill="url(#linear0)"/><path d="m122.832031 175.707031c-1.0625-1.917969-3.117187-3.074219-5.308593-2.984375h-47.769532c6.628906-45 30.160156-86.191406 66.636719-115.921875 34.46875-28.089843 77.789063-44.316406 118.851563-44.316406 26.789062 0 54.792968 6.800781 80.980468 19.78125 26.894532 13.253906 50.4375 32.433594 68.855469 56.09375 2.039063 2.597656 5.789063 3.0625 8.398437 1.042969 2.609376-2.015625 3.105469-5.761719 1.109376-8.386719-19.53125-25.117187-44.5-45.476563-73.03125-59.554687-27.832032-13.796876-57.679688-21.089844-86.308594-21.089844-43.777344 0-89.859375 17.324218-126.429688 47.128906-39.292968 32.019531-64.464844 76.222656-71.175781 125.222656h-51.628906c-2.195313-.105468-4.261719 1.050782-5.3125 2.984375-1.050781 1.929688-.90625 4.292969.375 6.082031l55.753906 80.742188c1.128906 1.613281 2.980469 2.570312 4.949219 2.5625 1.972656-.007812 3.8125-.984375 4.925781-2.605469l55.757813-80.695312c1.265624-1.792969 1.410156-4.148438.371093-6.085938zm-61.066406 73.25-44.324219-64.234375h88.652344zm0 0" fill="url(#linear1)"/><path d="m127.480469 204.722656c0 70.363282 57.039062 127.402344 127.398437 127.402344s127.398438-57.039062 127.398438-127.402344c0-70.359375-57.039063-127.398437-127.398438-127.398437-70.328125.082031-127.320312 57.074219-127.398437 127.398437zm55.53125 90.453125c1.761719-15.691406 15.074219-27.53125 30.867187-27.453125h13.308594c2.484375 12 13.898438 22.761719 27.558594 22.761719 13.65625 0 25.070312-10.761719 27.558594-22.761719h13.574218c15.792969-.082031 29.105469 11.757813 30.867188 27.453125-42.03125 33.574219-101.707032 33.574219-143.738282 0zm44.980469-63.960937c-7.210938-7.1875-11.214844-16.976563-11.113282-27.15625v-3.523438c25.394532-5.003906 47.503906-20.488281 60.882813-42.644531 1.707031.617187 3.328125 1.449219 4.824219 2.476563 6.785156 4.621093 10.734374 12.394531 10.472656 20.601562l-.179688 4.363281v18.167969c0 21.25-16.871094 38.664062-37.8125 38.820312-10.152344.097657-19.914062-3.90625-27.078125-11.105468zm76.886718-45.789063.128906-4.28125c.300782-12.300781-5.699218-23.902343-15.910156-30.769531-4.105468-2.78125-8.789062-4.59375-13.699218-5.292969-2.46875-.34375-4.890626.878907-6.078126 3.066407-19.964843 36.539062-54.945312 40.757812-57.847656 41.046874-3.757812.175782-6.6875 3.324219-6.597656 7.089844v7.773438c-.0625 2.933594.128906 5.871094.570312 8.777344-5.066406-9.773438-7.953124-20.527344-8.460937-31.523438-.449219-9.621094 1.535156-19.199219 5.773437-27.851562 7.222657-14.5 20.882813-25.566407 37.523438-30.375 9.339844-2.890626 19.441406-2.058594 28.179688 2.324218 8.246093 4.296875 14.699218 11.375 18.21875 19.976563l.226562.699219c.984375 2.949218 4.054688 4.660156 7.078125 3.945312 1.597656-.378906 9.835937-1.601562 15.152344 11.5625 5.292969 13.113281 4.988281 28.011719-.847657 41.949219-1.175781 2.738281-2.507812 5.410156-3.988281 8 .402344-2.660157.59375-5.347657.574219-8.039063zm-66 75.835938v-9.558594c5.082032 1.878906 10.441406 2.898437 15.859375 3.019531h.382813c5.386718-.160156 10.710937-1.203125 15.757812-3.082031v10.320313c0 8.835937-7.164062 16-16 16-8.835937 0-16-7.164063-16-16zm131.398438-56.539063c.019531 30.378906-11.921875 59.546875-33.242188 81.1875-5.597656-18.011718-22.296875-30.257812-41.15625-30.1875h-13v-1.765625c4.269532-3.3125 8.300782-6.921875 12.066406-10.796875 11.179688-11.167968 19.386719-22.9375 24.433594-34.980468 7.066406-16.875 7.382813-35.015626.898438-51.078126-4.898438-12.148437-13.945313-19.289062-23.90625-19.34375-10.566406-22.273437-35.871094-33.421874-59.4375-26.195312-19.855469 5.734375-36.242188 19.058594-44.957032 36.550781-5.125 10.464844-7.523437 22.058594-6.976562 33.699219 1.207031 29.347656 17.878906 56.660156 41.878906 70.660156v3.25h-13c-18.859375-.070312-35.5625 12.175782-41.160156 30.1875-21.316406-21.597656-33.261719-50.726562-33.242188-81.070312 0-63.636719 51.769532-115.464844 115.398438-115.464844 63.695312.046875 115.328125 51.65625 115.402344 115.347656zm0 0" fill="url(#linear2)"/></svg>