<svg height="500pt" viewBox="0 -66 500.48757 500" width="500pt" xmlns="http://www.w3.org/2000/svg" xmlns:xlink="http://www.w3.org/1999/xlink"><linearGradient id="lg1"><stop offset="0" stop-color="#00efd1"/><stop offset="1" stop-color="#00acea"/></linearGradient><linearGradient id="linear0" gradientUnits="userSpaceOnUse" x1="250.246107" x2="250.246107" xlink:href="#lg1" y1="-26.858215" y2="406.785785"/><linearGradient id="linear6" gradientUnits="userSpaceOnUse" x1="379.246107" x2="379.246107" xlink:href="#lg1" y1="-26.858215" y2="406.785785"/><g fill="url(#linear0)"><path d="m264.972656 169.644531c-2.339844-2.34375-6.140625-2.34375-8.484375 0l-6.242187 6.242188-6.242188-6.242188c-2.347656-2.3125-6.121094-2.296875-8.453125.035157-2.328125 2.328124-2.34375 6.101562-.03125 8.449218l6.242188 6.242188-6.242188 6.242187c-2.3125 2.351563-2.296875 6.121094.03125 8.453125 2.332031 2.328125 6.105469 2.34375 8.453125.035156l6.242188-6.246093 6.242187 6.246093c2.347657 2.308594 6.121094 2.292969 8.453125-.035156 2.328125-2.332031 2.34375-6.101562.03125-8.453125l-6.242187-6.242187 6.242187-6.242188c2.34375-2.34375 2.34375-6.140625 0-8.484375zm0 0"/><path d="m250.246094 263.929688c-28.875 0-52.285156 23.40625-52.285156 52.285156 0 28.875 23.410156 52.285156 52.285156 52.285156s52.285156-23.410156 52.285156-52.285156c-.03125-28.863282-23.421875-52.253906-52.285156-52.285156zm0 92.570312c-22.25 0-40.285156-18.035156-40.285156-40.285156s18.035156-40.285156 40.285156-40.285156 40.285156 18.035156 40.285156 40.285156c-.023438 22.238281-18.046875 40.261718-40.285156 40.285156zm0 0"/><path d="m263.550781 301.386719-18.304687 16.769531-7.941406-8.617188c-2.246094-2.433593-6.042969-2.589843-8.480469-.339843-2.4375 2.246093-2.589844 6.042969-.34375 8.476562l12 13.011719c2.242187 2.429688 6.027343 2.585938 8.464843.355469l22.714844-20.808594c1.597656-1.445313 2.296875-3.632813 1.832032-5.734375-.460938-2.101562-2.011719-3.792969-4.0625-4.4375-2.054688-.644531-4.292969-.140625-5.871094 1.324219zm0 0"/><path d="m250.246094 104.816406c28.875 0 52.285156-23.410156 52.285156-52.285156 0-28.878906-23.410156-52.289062-52.285156-52.289062s-52.285156 23.410156-52.285156 52.289062c.03125 28.863281 23.421874 52.253906 52.285156 52.285156zm0-92.574218c22.25 0 40.285156 18.039062 40.285156 40.289062 0 22.246094-18.035156 40.285156-40.285156 40.285156s-40.285156-18.039062-40.285156-40.285156c.023437-22.242188 18.046874-40.261719 40.285156-40.289062zm0 0"/><path d="m240.476562 67c2.238282 2.433594 6.023438 2.589844 8.460938.359375l22.71875-20.808594c1.613281-1.441406 2.324219-3.636719 1.863281-5.75-.457031-2.109375-2.015625-3.8125-4.078125-4.453125-2.066406-.644531-4.316406-.125-5.890625 1.355469l-18.304687 16.769531-7.941406-8.613281c-2.246094-2.4375-6.042969-2.589844-8.480469-.34375-2.433594 2.246094-2.589844 6.042969-.34375 8.476563zm0 0"/><path d="m380.113281 63.996094c-47.757812-.007813-91 28.21875-110.214843 71.9375-12.597657-5.128906-26.707032-5.128906-39.308594 0-22.914063-52.136719-79.222656-81.082032-134.953125-69.375-55.734375 11.707031-95.636719 60.863281-95.636719 117.8125 0 56.949218 39.902344 106.105468 95.636719 117.8125 55.730469 11.707031 112.039062-17.242188 134.953125-69.375 12.601562 5.128906 26.710937 5.128906 39.308594 0 24.175781 55.007812 85.207031 83.765625 143.015624 67.390625 57.8125-16.375 94.695313-72.867188 86.429688-132.382813-8.265625-59.511718-59.148438-103.816406-119.230469-103.820312zm-259.734375 228.75c-24.476562-.023438-48.222656-8.363282-67.339844-23.65625 1.691407-14.601563 14.015626-25.640625 28.714844-25.71875h12.25c2.535156 12.484375 13.511719 21.453125 26.25 21.453125 12.738282 0 23.714844-8.96875 26.25-21.453125h12.507813c14.714843.082031 27.046875 11.144531 28.71875 25.765625-1.648438 1.304687-3.328125 2.648437-5.054688 3.867187-18.222656 12.871094-39.988281 19.769532-62.296875 19.742188zm-25.433594-83.664063c-6.816406-6.671875-10.671874-15.800781-10.699218-25.339843v-3.03125c23.953125-4.648438 44.832031-19.1875 57.5-40.039063 1.539062.5625 3.003906 1.300781 4.371094 2.199219 6.367187 4.257812 10.136718 11.457031 10 19.117187l.125 4.117188v17.113281c.085937 14.558594-8.601563 27.738281-22.015626 33.398438-13.414062 5.660156-28.917968 2.6875-39.285156-7.535157zm73.300782-42.886719-.085938-4.03125c.246094-11.722656-5.503906-22.761718-15.25-29.285156-3.925781-2.648437-8.40625-4.371094-13.097656-5.042968-2.472656-.335938-4.894531.882812-6.101562 3.070312-18.683594 34.199219-51.75 38.207031-54.5625 38.488281-3.796876.148438-6.820313 3.226563-6.902344 7.023438v7.324219c.054687 2.050781.238281 4.097656.554687 6.121093-4.089843-8.636719-6.394531-18.011719-6.78125-27.558593-.390625-9.015626 1.496094-17.984376 5.488281-26.074219 6.761719-13.566407 19.601563-23.933594 35.179688-28.4375 8.722656-2.695313 18.152344-1.921875 26.316406 2.167969 7.691406 4.007812 13.714844 10.609374 17 18.636718l.214844.640625c.984375 2.949219 4.054688 4.660157 7.082031 3.941407 2.757813-.699219 5.6875.019531 7.804688 1.921874 2.71875 2.371094 4.804687 5.382813 6.066406 8.761719 4.953125 12.269531 4.667969 26.210938-.800781 39.257813-.816406 1.953125-1.597656 3.902344-2.628906 5.84375.277343-1.902344.445312-3.820313.5-5.746094zm-63 71.4375v-8.523437c4.859375 1.503906 9.914062 2.269531 15 2.261719h.363281c4.964844-.027344 9.902344-.804688 14.636719-2.308594v9.234375c0 8.285156-6.714844 15-15 15s-15-6.714844-15-15zm92.714844 22.300782c-5.429688-16.953125-21.152344-28.480469-38.953126-28.5625h-11.761718v-.445313c3-2.820312 7.230468-6.144531 11.199218-10.101562 10.566407-10.550781 18.289063-21.675781 23.058594-33.0625 6.695313-15.984375 6.972656-33.164063.832032-48.386719-4.644532-11.5-13.203126-18.292969-22.640626-18.441406-10.09375-21.011719-34.03125-31.496094-56.320312-24.660156-18.800781 5.429687-34.3125 18.046874-42.570312 34.609374-4.917969 9.898438-7.261719 20.875-6.8125 31.921876 1.144531 27.691406 16.253906 53.472656 39.253906 66.75v1.816406h-11.492188c-17.769531.082031-33.476562 11.570312-38.929687 28.484375-30.324219-31.164063-39.074219-77.433594-22.222657-117.515625 16.851563-40.082032 56.035157-66.203125 99.515626-66.335938 43.476562-.132812 82.824218 25.746094 99.917968 65.722656-13.84375 9.773438-22.078125 25.664063-22.078125 42.609376 0 16.945312 8.234375 32.832031 22.078125 42.605468-5.246094 12.269532-12.734375 23.457032-22.074218 32.992188zm12-75.558594c0-22.25 18.035156-40.289062 40.285156-40.289062s40.289062 18.035156 40.289062 40.285156-18.039062 40.289062-40.289062 40.285156c-22.238282-.023438-40.261719-18.046875-40.285156-40.285156zm108.285156 88.644531v-49.6875c0-.199219-.257813-.398437-.277344-.605469-.785156-7.429687 1.574219-14.851562 6.507812-20.464843 4.902344-5.558594 11.925782-8.789063 19.335938-8.890625h2.757812l8.335938 25.855468c.703125 2.214844 2.59375 3.84375 4.890625 4.207032.242187.054687.492187.09375.742187.117187l-6.949218 64.738281c-.039063.386719-.039063.773438 0 1.160157-12.726563-3.214844-24.746094-8.757813-35.457032-16.34375-.046874-.035157.113282-.058594.113282-.085938zm53.238281 19.386719-5.660156-5.660156 8.054687-74.957032 5.863282-6.550781 6.660156 7.089844 7.996094 74.417969-5.660157 5.65625c-2.84375.226562-5.722656.339844-8.625.34375-2.894531 0-5.769531-.113282-8.628906-.339844zm70.898437-69.679688c-.019531.199219-.140624.398438-.140624.605469v49.628907c-10 7.542968-22.679688 13.199218-35.714844 16.5.050781-.378907.066406-.757813.046875-1.140626l-6.921875-64.714843c.390625 0 .777344-.039063 1.160156-.113281 2.078125-.527344 3.746094-2.066407 4.4375-4.089844l9.273438-26.03125h1.898437c7.429687.101562 14.46875 3.328125 19.394531 8.890625 4.953125 5.601562 7.335938 13.023437 6.570313 20.464843zm11.863282 40.410157v-39.511719c1.03125-10.710938-2.441406-21.367188-9.585938-29.410156-7.179687-8.074219-17.4375-12.738282-28.238281-12.84375h-6.117187c-2.574219.105468-4.816407 1.78125-5.648438 4.21875l-7.378906 20.65625-13.273438-14.054688c-1.148437-1.226562-2.765625-1.902344-4.445312-1.859375-1.683594.027344-3.28125.757813-4.398438 2.015625l-12.070312 13.5-6.460938-20.082031c-.777344-2.523437-3.0625-4.28125-5.699218-4.390625h-7.117188c-10.765625.105469-20.984375 4.773438-28.113281 12.847656-7.105469 8.058594-10.53125 18.710938-9.453125 29.402344v39.597656c-10.96875-10.136718-19.671875-22.476562-25.550782-36.207031 13.808594-9.824219 21.996094-25.738281 21.960938-42.683594-.035156-16.949219-8.289062-32.824219-22.140625-42.59375 17.289063-40.53125 57.417969-66.542969 101.480469-65.777343 44.058594.769531 83.257812 28.160156 99.125 69.269531 15.871094 41.109375 5.242187 87.734375-26.875 117.90625zm0 0"/></g><path d="m416.246094 136.207031c0-20.34375-16.492188-36.835937-36.835938-36.835937h-.328125c-20.34375 0-36.835937 16.492187-36.835937 36.835937v12.328125c0 20.34375 16.492187 36.835938 36.835937 36.835938h.328125c20.34375 0 36.835938-16.492188 36.835938-36.835938zm-12 12.328125c0 13.714844-11.121094 24.835938-24.835938 24.835938h-.328125c-13.714843 0-24.835937-11.121094-24.835937-24.835938v-12.328125c0-13.714843 11.121094-24.835937 24.835937-24.835937h.328125c13.714844 0 24.835938 11.121094 24.835938 24.835937zm0 0" fill="url(#linear6)"/></svg>