<svg height="452pt" viewBox="-1 0 452 452.00242" width="452pt" xmlns="http://www.w3.org/2000/svg" xmlns:xlink="http://www.w3.org/1999/xlink"><linearGradient id="lg1"><stop offset="0" stop-color="#00efd1"/><stop offset="1" stop-color="#00acea"/></linearGradient><linearGradient id="linear0" gradientUnits="userSpaceOnUse" x1="225.001378" x2="225.001378" xlink:href="#lg1" y1="6.882241" y2="420.380241"/><linearGradient id="linear1" gradientUnits="userSpaceOnUse" x1="225.878378" x2="225.878378" xlink:href="#lg1" y1="6.882241" y2="420.380241"/><path d="m444.628906 187.738281-43.53125-4.199219c-4.617187-18.652343-12.128906-36.460937-22.265625-52.78125l27.796875-33.554687c1.976563-2.382813 1.8125-5.878906-.375-8.070313l-45.550781-45.546874c-2.191406-2.191407-5.6875-2.355469-8.070313-.378907l-33.511718 27.75c-16.300782-10.199219-34.136719-17.707031-52.820313-22.246093l-4.199219-43.417969c-.308593-3.050781-2.910156-5.355469-5.976562-5.292969h-62.25c-3.0625-.0585938-5.664062 2.242188-5.96875 5.292969l-4.203125 43.484375c-18.683594 4.527344-36.519531 12.027344-52.820313 22.214844l-33.511718-27.769532c-2.382813-1.976562-5.878906-1.816406-8.070313.371094l-45.550781 45.546875c-2.1875 2.191406-2.351562 5.683594-.378906 8.066406l27.789062 33.554688c-10.140625 16.320312-17.660156 34.128906-22.28125 52.78125l-43.5 4.199219c-3.066406.296874-5.3984372 2.886718-5.378906 5.96875v64.582031c-.0234375 3.082031 2.308594 5.671875 5.375 5.972656l43.527344 4.199219c4.53125 18.6875 12.039062 36.519531 22.234375 52.824218l-27.757813 33.511719c-1.976562 2.382813-1.816406 5.878907.375 8.070313l45.546875 45.546875c2.191407 2.1875 5.683594 2.355469 8.070313.378906l33.554687-27.789063c16.320313 10.140626 34.128907 17.660157 52.777344 22.28125l4.203125 43.421876c.304688 3.050781 2.90625 5.351562 5.96875 5.289062h62.25c3.066406.0625 5.664062-2.238281 5.972656-5.289062l4.199219-43.488282c18.648437-4.609375 36.457031-12.117187 52.777344-22.246094l33.558593 27.804688c2.382813 1.976562 5.878907 1.816406 8.070313-.371094l45.550781-45.550781c2.1875-2.1875 2.351563-5.679687.378906-8.066406l-27.753906-33.507813c10.199219-16.304687 17.710938-34.136718 22.246094-52.824218l43.5-4.199219c3.066406-.300781 5.398438-2.890625 5.375-5.96875v-64.582031c.023438-3.082032-2.304688-5.671876-5.371094-5.972657zm-6.628906 65.105469-42.382812 4.089844c-2.59375.25-4.722657 2.15625-5.261719 4.703125-4.378907 20.238281-12.488281 39.484375-23.910157 56.753906-1.46875 2.207031-1.316406 5.117187.378907 7.15625l27.078125 32.699219-37.824219 37.828125-32.703125-27.074219c-2.015625-1.671875-4.878906-1.839844-7.078125-.421875-17.339844 11.351563-36.59375 19.472656-56.828125 23.972656-2.535156.492188-4.441406 2.585938-4.703125 5.152344l-4.089844 42.300781h-51.351562l-4.089844-42.300781c-.253906-2.582031-2.15625-4.699219-4.699219-5.222656-20.234375-4.484375-39.484375-12.59375-56.828125-23.9375-2.203125-1.414063-5.070312-1.234375-7.082031.4375l-32.699219 27.085937-37.824219-37.828125 27.074219-32.691406c1.691407-2.042969 1.84375-4.949219.375-7.15625-11.429687-17.269531-19.542969-36.515625-23.925781-56.753906-.527344-2.542969-2.648438-4.445313-5.234375-4.699219l-42.390625-4.09375v-53.683594l42.386719-4.089844c2.589843-.253906 4.71875-2.152343 5.261719-4.699218 4.492187-20.234375 12.609374-39.488282 23.957031-56.832032 1.417969-2.199218 1.246093-5.066406-.425781-7.078124l-27.078126-32.699219 37.824219-37.828125 32.699219 27.074218c2.042969 1.691407 4.953125 1.84375 7.15625.371094 17.269531-11.425781 36.511719-19.539062 56.75-23.921875 2.53125-.492187 4.441406-2.585937 4.699219-5.15625l4.089843-42.296875h51.351563l4.089844 42.296875c.253906 2.582031 2.160156 4.699219 4.703125 5.222657 20.234375 4.371093 39.480468 12.472656 56.753906 23.890624 2.207031 1.464844 5.117188 1.304688 7.15625-.390624l32.699219-27.082032 37.828125 37.820313-27.078125 32.695312c-1.667969 2.015625-1.839844 4.878907-.417969 7.078125 11.351562 17.34375 19.472656 36.597656 23.96875 56.832032.53125 2.542968 2.652344 4.445312 5.238281 4.699218l42.386719 4.09375zm0 0" fill="url(#linear0)"/><path d="m225.878906 90c-74.992187 0-136 61.011719-136 136 0 74.992188 61.007813 136 136 136 74.988282 0 136-61.007812 136-136 0-74.988281-61.007812-136-136-136zm0 260c-68.484375 0-124-55.515625-124-124 0-68.480469 55.515625-124 124-124s124 55.519531 124 124c-.078125 68.453125-55.550781 123.925781-124 124zm0 0" fill="url(#linear1)"/><path d="m295.433594 171h-28.433594v-3.183594c-.203125-12.027344-9.949219-21.703125-21.980469-21.816406h-40.039062c-12.027344.113281-21.777344 9.789062-21.980469 21.816406v3.183594h-28.429688c-5.941406-.0625-11.660156 2.242188-15.894531 6.40625s-6.636719 9.84375-6.675781 15.78125v20.777344c0 6.21875 4 11.722656 9 14.496094v58.890624c0 10.121094 8.113281 18.648438 18.238281 18.648438h131.527344c10.125 0 18.234375-8.527344 18.234375-18.648438v-58.738281c5-2.183593 9-7.382812 9-13.144531v-22.28125c-.035156-5.9375-2.4375-11.617188-6.671875-15.78125-4.238281-4.164062-9.957031-6.46875-15.894531-6.40625zm-100.433594-3.183594c.195312-5.398437 4.578125-9.710937 9.980469-9.816406h40.039062c5.40625.105469 9.785157 4.414062 9.980469 9.816406v3.183594h-60zm102 119.535156c.078125 3.542969-2.691406 6.496094-6.234375 6.648438h-131.527344c-3.542969-.152344-6.3125-3.105469-6.238281-6.648438v-54.941406l48 14.714844v2.03125c0 13.253906 10.746094 24 24 24 13.257812 0 24-10.746094 24-24v-2.675781l48-14.238281zm-84-38.195312v-13.15625h24v13.15625c0 6.625-5.371094 12-12 12-6.625 0-12-5.375-12-12zm93-33.6875c.027344.980469-.601562 1.859375-1.535156 2.152344l-55.464844 16.351562v-4.320312c0-3.3125-2.914062-5.652344-6.226562-5.652344h-35.546876c-3.3125 0-6.226562 2.339844-6.226562 5.652344v4.929687l-53.984375-16.453125c-1.824219-.558594-3.050781-2.257812-3.015625-4.164062v-20.777344c.035156-2.757812 1.171875-5.386719 3.160156-7.300781 1.984375-1.914063 4.652344-2.953125 7.410156-2.886719h140.863282c2.757812-.066406 5.425781.972656 7.410156 2.886719 1.984375 1.914062 3.121094 4.542969 3.15625 7.300781zm0 0" fill="url(#linear0)"/></svg>