<svg height="468pt" viewBox="-33 0 467 468" width="468pt" xmlns="http://www.w3.org/2000/svg" xmlns:xlink="http://www.w3.org/1999/xlink"><linearGradient id="lg1"><stop offset="0" stop-color="#00efd1"/><stop offset="1" stop-color="#00acea"/></linearGradient><linearGradient id="linear0" gradientUnits="userSpaceOnUse" x1="93.807648" x2="225.849648" xlink:href="#lg1" y1="334.641" y2="334.641"/><linearGradient id="linear1" gradientUnits="userSpaceOnUse" x1="167.899648" x2="167.899648" xlink:href="#lg1" y1="14.713" y2="461.768"/><linearGradient id="linear2" gradientUnits="userSpaceOnUse" x1="200.509648" x2="200.509648" xlink:href="#lg1" y1="14.713" y2="461.768"/><linearGradient id="linear3" gradientUnits="userSpaceOnUse" x1="322.509648" x2="322.509648" xlink:href="#lg1" y1="14.713" y2="461.768"/><linearGradient id="linear4" gradientUnits="userSpaceOnUse" x1="281.009648" x2="281.009648" xlink:href="#lg1" y1="14.713" y2="461.768"/><linearGradient id="linear7" gradientUnits="userSpaceOnUse" x1="322.009648" x2="322.009648" xlink:href="#lg1" y1="14.713" y2="461.768"/><linearGradient id="linear10" gradientUnits="userSpaceOnUse" x1="364.009648" x2="364.009648" xlink:href="#lg1" y1="14.713" y2="461.768"/><linearGradient id="linear12" gradientUnits="userSpaceOnUse" x1="153.009648" x2="153.009648" xlink:href="#lg1" y1="14.713" y2="461.768"/><linearGradient id="linear13" gradientUnits="userSpaceOnUse" x1="151.509648" x2="151.509648" xlink:href="#lg1" y1="14.713" y2="461.768"/><path d="m219.851562 340.640625h-120.042968c-3.3125 0-6-2.6875-6-6s2.6875-6 6-6h120.042968c3.3125 0 6 2.6875 6 6s-2.6875 6-6 6zm0 0" fill="url(#linear0)"/><path d="m58.292969 306c0 3.3125 2.683593 6 6 6h207.214843c3.316407 0 6-2.6875 6-6s-2.683593-6-6-6h-207.214843c-3.316407 0-6 2.6875-6 6zm0 0" fill="url(#linear1)"/><path d="m394.992188 0h-145.667969c-3.316407 0-5.816407 3.171875-5.816407 6.484375v18.515625h-237.480468c-3.316406 0-5.519532 3.144531-5.519532 6.457031v351.910157c-.085937 1.519531.429688 3.015624 1.433594 4.15625l74.984375 78.390624c1.058594 1.238282 2.578125 1.992188 4.203125 2.085938h242.832032c3.3125 0 5.546874-3.171875 5.546874-6.484375v-243.515625h65.484376c3.316406 0 5.515624-2.742188 5.515624-6.054688v-205.460937c0-3.3125-2.199218-6.484375-5.515624-6.484375zm-319.484376 446.613281-55.398437-57.613281h55.398437zm242 9.386719h-230v-72.632812c-.148437-3.457032-2.917968-6.226563-6.378906-6.367188h-68.621094v-340h231v174.945312c-.042968 1.578126.550782 3.105469 1.640626 4.242188 1.09375 1.140625 2.597656 1.792969 4.175781 1.8125h68.183593zm71-250h-133v-194h133zm0 0" fill="url(#linear2)"/><path d="m381.507812 26c0-3.3125-2.683593-6-6-6h-106c-3.3125 0-6 2.6875-6 6v27c0 3.3125 2.6875 6 6 6h106c3.316407 0 6-2.6875 6-6zm-106 6h94v15h-94zm0 0" fill="url(#linear3)"/><g fill="url(#linear4)"><path d="m298.507812 77c0-3.3125-2.683593-6-6-6h-23c-3.3125 0-6 2.6875-6 6v23c0 3.3125 2.6875 6 6 6h23c3.316407 0 6-2.6875 6-6zm-23 6h10v11h-10zm0 0"/><path d="m298.507812 121c0-3.3125-2.683593-6-6-6h-23c-3.3125 0-6 2.6875-6 6v23c0 3.3125 2.6875 6 6 6h23c3.316407 0 6-2.6875 6-6zm-23 6h10v11h-10zm0 0"/><path d="m298.507812 164c0-3.3125-2.683593-6-6-6h-23c-3.3125 0-6 2.6875-6 6v23c0 3.3125 2.6875 6 6 6h23c3.316407 0 6-2.6875 6-6zm-23 6h10v11h-10zm0 0"/></g><path d="m339.507812 77c0-3.3125-2.683593-6-6-6h-23c-3.3125 0-6 2.6875-6 6v23c0 3.3125 2.6875 6 6 6h23c3.316407 0 6-2.6875 6-6zm-12 17h-11v-11h11zm0 0" fill="url(#linear7)"/><path d="m339.507812 121c0-3.3125-2.683593-6-6-6h-23c-3.3125 0-6 2.6875-6 6v23c0 3.3125 2.6875 6 6 6h23c3.316407 0 6-2.6875 6-6zm-12 17h-11v-11h11zm0 0" fill="url(#linear7)"/><path d="m339.507812 164c0-3.3125-2.683593-6-6-6h-23c-3.3125 0-6 2.6875-6 6v23c0 3.3125 2.6875 6 6 6h23c3.316407 0 6-2.6875 6-6zm-12 17h-11v-11h11zm0 0" fill="url(#linear7)"/><path d="m381.507812 77c0-3.3125-2.683593-6-6-6h-23c-3.3125 0-6 2.6875-6 6v23c0 3.3125 2.6875 6 6 6h23c3.316407 0 6-2.6875 6-6zm-12 17h-11v-11h11zm0 0" fill="url(#linear10)"/><path d="m381.507812 121c0-3.3125-2.683593-6-6-6h-23c-3.3125 0-6 2.6875-6 6v67c0 3.3125 2.6875 6 6 6h23c3.316407 0 6-2.6875 6-6zm-12 60h-11v-54h11zm0 0" fill="url(#linear10)"/><path d="m72.507812 266.414062c-.050781 1.519532.535157 2.988282 1.621094 4.050782 1.082032 1.0625 2.566406 1.617187 4.082032 1.535156h149.570312c1.519531.082031 3.003906-.472656 4.089844-1.535156 1.089844-1.0625 1.683594-2.53125 1.636718-4.050782v-56.183593c1.085938-11.5-2.65625-22.933594-10.328124-31.570313-7.761719-8.660156-18.832032-13.625-30.464844-13.660156h-79.433594c-11.632812.035156-22.699219 5-30.460938 13.664062-7.664062 8.636719-11.398437 20.070313-10.3125 31.566407zm77.050782-69.414062h6.941406l6.582031 36.261719-9.960937 8.96875-9.300782-8.886719zm6.765625-12h-6.660157l-1.875-8h10.410157zm-64.753907 1.710938c5.546876-6.152344 13.429688-9.679688 21.710938-9.710938h22.15625l3.085938 12.75c-.003907.027344-.015626.089844-.023438.121094l-6.992188 44.390625c-.375 1.992187.277344 4.039062 1.734376 5.449219l15.585937 15c2.269531 2.1875 5.847656 2.242187 8.1875.128906l16.585937-15c1.539063-1.390625 2.25-3.476563 1.878907-5.519532l-8.042969-44.480468 3.109375-12.839844h22.167969c8.277344.007812 16.160156 3.53125 21.683594 9.691406 5.527343 6.160156 8.171874 14.382813 7.277343 22.609375-.019531.199219-.167969.4375-.167969.636719v50.0625h-137v-50.0625c0-.199219-.160156-.4375-.179687-.636719-.882813-8.21875 1.746094-16.421875 7.242187-22.589843zm0 0" fill="url(#linear12)"/><path d="m151.507812 162.277344c22.054688-.019532 39.941407-17.871094 40-39.925782v-33.792968c.027344-6.824219-2.6875-13.375-7.53125-18.179688-4.847656-4.804687-11.417968-7.460937-18.242187-7.378906h-27.855469c-14.335937 0-26.371094 11.222656-26.371094 25.558594v33.792968c.0625 22.054688 17.949219 39.90625 40 39.925782zm0-12c-15.429687-.011719-27.945312-12.496094-28-27.925782v-19.261718c9-.246094 15.691407-3.445313 21.703126-9.355469 3.273437 3.546875 7.183593 6.449219 11.523437 8.550781 4.402344 2.117188 9.226563 3.210938 14.113281 3.195313 2.917969-.015625 5.824219-.363281 8.660156-1.046875v17.917968c-.050781 15.429688-12.566406 27.914063-28 27.925782zm28-61.71875v3.429687c-6 2.140625-12.335937 2.191407-17.59375-.300781-7.472656-3.53125-12.277343-11.6875-15.113281-16.6875h18.933594c3.640625-.085938 7.164063 1.304688 9.757813 3.859375 2.597656 2.554687 4.046874 6.054687 4.015624 9.699219zm-45.761718-13.425782c1.175781 3.027344 2.574218 5.960938 4.179687 8.777344-4.007812 4.511719-8.417969 6.914063-14.417969 7.179688v-2.53125c.089844-6.238282 4.246094-11.6875 10.238282-13.425782zm0 0" fill="url(#linear13)"/></svg>