<svg height="474pt" viewBox="0 -42 474.319 474" width="474pt" xmlns="http://www.w3.org/2000/svg" xmlns:xlink="http://www.w3.org/1999/xlink"><linearGradient id="lg1"><stop offset="0" stop-color="#00efd1"/><stop offset="1" stop-color="#00acea"/></linearGradient><linearGradient id="linear0" gradientUnits="userSpaceOnUse" x1="237.161026" x2="237.161026" xlink:href="#lg1" y1="-33.1285" y2="417.4065"/><linearGradient id="linear1" gradientUnits="userSpaceOnUse" x1="237.159026" x2="237.159026" xlink:href="#lg1" y1="-33.1285" y2="417.4065"/><linearGradient id="linear2" gradientUnits="userSpaceOnUse" x1="394.160026" x2="394.160026" xlink:href="#lg1" y1="-33.1285" y2="417.4065"/><linearGradient id="linear3" gradientUnits="userSpaceOnUse" x1="395.157026" x2="395.157026" xlink:href="#lg1" y1="-33.1285" y2="417.4065"/><linearGradient id="linear4" gradientUnits="userSpaceOnUse" x1="81.160026" x2="81.160026" xlink:href="#lg1" y1="-33.1285" y2="417.4065"/><linearGradient id="linear5" gradientUnits="userSpaceOnUse" x1="80.160026" x2="80.160026" xlink:href="#lg1" y1="-33.1285" y2="417.4065"/><path d="m282.945312 151.859375-77.101562-.15625 16.300781-16.300781c2.34375-2.34375 2.34375-6.140625 0-8.484375s-6.140625-2.34375-8.484375 0l-26.511718 26.507812-.007813.011719c-.273437.277344-.519531.578125-.734375.902344-.023438.03125-.042969.066406-.0625.097656-.191406.296875-.355469.609375-.492188.933594-.015624.042968-.027343.085937-.042968.125-.128906.324218-.226563.65625-.296875.992187-.007813.039063-.007813.078125-.015625.117188-.0625.34375-.097656.691406-.101563 1.039062v.070313c.003907.347656.039063.695312.101563 1.039062.003906.027344.007812.054688.011718.085938.070313.347656.167969.6875.300782 1.015625.011718.035156.023437.066406.035156.101562.140625.332031.304688.652344.5.953125.019531.027344.035156.054688.050781.082032.21875.328124.46875.632812.746094.914062l26.515625 26.515625c2.347656 2.308594 6.121094 2.292969 8.449219-.035156s2.34375-6.101563.035156-8.449219l-16.238281-16.085938 77.019531.308594h.011719c3.3125-.117187 5.933594-2.832031 5.9375-6.144531s-2.613282-6.035156-5.925782-6.15625zm0 0" fill="url(#linear0)"/><path d="m287.984375 235.875c.1875-.292969.351563-.605469.488281-.929688.019532-.039062.03125-.082031.046875-.121093.128907-.324219.226563-.660157.300781-1 .003907-.035157.007813-.074219.015626-.109375.0625-.347656.097656-.695313.101562-1.046875 0-.023438 0-.046875 0-.070313-.003906-.347656-.039062-.695312-.101562-1.035156 0-.027344-.007813-.058594-.011719-.085938-.070313-.347656-.171875-.6875-.300781-1.019531-.011719-.03125-.023438-.066406-.039063-.097656-.136719-.332031-.304687-.652344-.5-.953125-.015625-.027344-.03125-.058594-.046875-.082031-.21875-.328125-.46875-.632813-.746094-.914063l-.003906-.007812-26.511719-26.507813c-2.347656-2.3125-6.121093-2.296875-8.449219.035157-2.332031 2.328124-2.347656 6.101562-.035156 8.449218l16.238282 16.238282-77.019532-.160157c-3.316406-.003906-6.007812 2.675781-6.011718 5.988281-.007813 3.316407 2.671874 6.007813 5.988281 6.011719l77.097656.160157-16.300781 16.296874c-2.34375 2.34375-2.34375 6.144532 0 8.488282s6.144531 2.34375 8.488281 0l26.507813-26.511719c.007812-.007813.015624-.019531.023437-.027344.269531-.269531.507813-.566406.722656-.882812.015625-.035157.035157-.070313.058594-.105469zm0 0" fill="url(#linear1)"/><path d="m433.160156 39.078125c0-21.492187-17.425781-38.917969-38.917968-38.917969h-.164063c-21.492187 0-38.917969 17.425782-38.917969 38.917969v13.164063c0 21.492187 17.425782 38.917968 38.917969 38.917968h.164063c21.492187 0 38.917968-17.425781 38.917968-38.917968zm-12 13.164063c0 14.867187-12.050781 26.917968-26.917968 26.917968h-.164063c-14.867187 0-26.917969-12.050781-26.917969-26.917968v-13.164063c0-14.867187 12.050782-26.917969 26.917969-26.917969h.164063c14.867187 0 26.917968 12.050782 26.917968 26.917969zm0 0" fill="url(#linear2)"/><path d="m433.742188 109.160156h-6.53125c-2.519532-.027344-4.78125 1.535156-5.644532 3.898438l-8.101562 22.511718-14.523438-15.460937c-1.136718-1.277344-2.761718-2.007813-4.46875-2.007813-1.707031-.003906-3.335937.722657-4.472656 1.996094l-13.355469 14.921875-7.113281-21.78125c-.8125-2.457031-3.117188-4.105469-5.699219-4.078125h-7.597656c-11.335937-.027344-22.160156 4.742188-29.792969 13.125-7.632812 8.386719-11.367187 19.605469-10.28125 30.894532v64.140624c-.003906 11.535157 4.65625 22.582032 12.921875 30.625l5.914063 5.75c5.609375 5.40625 8.929687 12.757813 9.285156 20.539063l5.230469 110.066406c.132812 3.226563 2.753906 5.789063 5.980469 5.859375h79.15625c3.230468-.066406 5.855468-2.632812 5.996093-5.859375l5.242188-110.070312c.359375-7.757813 3.65625-15.085938 9.222656-20.5l6.058594-5.816407c8.246093-8.027343 12.925781-19.027343 12.992187-30.535156v-64.199218c1.007813-11.328126-2.800781-22.554688-10.492187-30.929688-7.691407-8.378906-18.554688-13.128906-29.925781-13.089844zm-39.164063 23.8125 7.507813 7.988282 8.570312 79.769531-15.675781 15.675781-15.671875-15.671875 8.628906-80.34375zm67.511719 19.308594c.011718.203125.035156.40625.070312.605469v64.492187c-.058594 8.265625-3.429687 16.164063-9.359375 21.917969l-6.007812 5.800781c-7.761719 7.574219-12.359375 17.808594-12.867188 28.636719l-5 104.429687h-67.710937l-4.96875-104.355468c-.5-10.859375-5.132813-21.113282-12.949219-28.667969l-5.878906-5.785156c-5.929688-5.796875-9.269531-13.742188-9.257813-22.035157v-64.433593c0-.199219-.085937-.398438-.105468-.605469-.824219-7.964844 1.777343-15.902344 7.152343-21.839844s13.015625-9.3125 21.023438-9.28125h3.238281l8.992188 27.546875c.808593 2.625 3.34375 4.324219 6.078124 4.070313l-7.46875 69.535156c-.195312 1.804688.4375 3.597656 1.722657 4.878906l21.945312 21.945313c2.34375 2.34375 6.144531 2.34375 8.484375 0l21.949219-21.945313c1.28125-1.285156 1.914063-3.082031 1.722656-4.886718l-7.46875-69.53125c.53125.03125 1.070313-.003907 1.59375-.113282 2.035157-.394531 3.714844-1.828125 4.425781-3.777344l9.984376-27.722656h2.3125c8.023437-.035156 15.683593 3.332032 21.085937 9.261719 5.402344 5.933594 8.042969 13.875 7.261719 21.859375zm0 0" fill="url(#linear3)"/><path d="m120.878906 193.160156h-79.4375c-11.589844-.089844-22.683594 4.714844-30.542968 13.234375-7.859376 8.519531-11.761719 19.960938-10.738282 31.507813v56.1875c.09375 3.367187 2.839844 6.050781 6.207032 6.070312h149.578124c3.371094-.015625 6.121094-2.703125 6.214844-6.070312v-56.1875c1.019532-11.546875-2.878906-22.988282-10.738281-31.507813s-18.949219-13.324219-30.542969-13.234375zm-43.15625 31h6.9375l6.582032 36.515625-9.960938 9.101563-9.300781-9.078125zm6.765625-12h-6.664062l-1.871094-7h10.40625zm65.597657 24.847656c-.019532.199219.078124.398438.078124.605469v50.546875h-138.003906v-50.546875c.035156-.203125.058594-.402343.074219-.605469-.808594-8.179687 1.898437-16.320312 7.449219-22.382812 5.589844-6.085938 13.496094-9.527344 21.757812-9.464844h22.160156l3.085938 12.5c0 .03125-.015625-.03125-.023438 0l-6.988281 44.320313c-.378906 1.984375.273438 4.027343 1.734375 5.425781l15.585938 14.988281c2.273437 2.183594 5.847656 2.238281 8.183594.121094l16.589843-15c1.535157-1.390625 2.246094-3.480469 1.878907-5.519531l-8.042969-44.238282 3.105469-12.597656h22.167968c8.261719-.058594 16.164063 3.378906 21.753906 9.464844 5.546876 6.0625 8.257813 14.199219 7.449219 22.382812zm0 0" fill="url(#linear4)"/><path d="m80.160156 189.949219c22.054688-.019531 39.941406-17.871094 40-39.925781v-33.792969c-.136718-14.417969-11.84375-26.042969-26.261718-26.070313h-27.855469c-14.34375.058594-25.925781 11.726563-25.882813 26.070313v33.792969c.058594 22.054687 17.945313 39.90625 40 39.925781zm0-12c-15.429687-.011719-27.949218-12.496094-28-27.925781v-19.265626c8.085938-.257812 15.765625-3.605468 21.457032-9.351562 3.230468 3.542969 7.097656 6.445312 11.402343 8.550781 4.46875 2.121094 9.355469 3.214844 14.300781 3.199219 2.976563-.015625 5.941407-.367188 8.839844-1.046875v17.914063c-.050781 15.429687-12.570312 27.914062-28 27.925781zm28-61.71875v3.429687c-7 2.136719-12.578125 1.933594-17.835937-.554687-7.476563-3.53125-12.523438-10.945313-15.359375-16.945313h18.933594c7.792968.019532 14.136718 6.277344 14.261718 14.070313zm-46.007812-13.421875c1.222656 3.023437 2.660156 5.957031 4.300781 8.777344-3.621094 4.195312-8.765625 6.777343-14.292969 7.171874v-2.53125c-.015625-6.191406 4.054688-11.65625 9.992188-13.417968zm0 0" fill="url(#linear5)"/></svg>