<svg height="459pt" viewBox="-15 0 459 459.99307" width="459pt" xmlns="http://www.w3.org/2000/svg" xmlns:xlink="http://www.w3.org/1999/xlink"><linearGradient id="linear0" gradientUnits="userSpaceOnUse" x1="215.252297" x2="215.252297" y1="1.704657" y2="452.239657"><stop offset="0" stop-color="#00efd1"/><stop offset="1" stop-color="#00acea"/></linearGradient><path d="m372.253906 282.105469v.164062c-5.058594 5.488281-8.382812 12.351563-9.554687 19.722657h-141.445313v-55.996094c66.71875-3.253906 118.664063-59.144532 117.035156-125.925782-1.628906-66.78125-56.234374-120.070312-123.035156-120.070312-66.804687 0-121.40625 53.289062-123.035156 120.070312s50.3125 122.671876 117.035156 125.925782v56h-141.445312c-.988282-7.441406-4.367188-14.363282-9.628906-19.71875-13.234376-13.253906-34.703126-13.292969-47.988282-.085938-13.015625 13.296875-12.914062 34.589844.234375 47.757813 13.144531 13.171875 34.4375 13.308593 47.757813.316406 4.503906-4.453125 7.652344-10.097656 9.070312-16.273437h91v32h-50.523437c-3.3125 0-6.476563 2.445312-6.476563 5.757812v34.644531c-6.703125 1.339844-12.871094 4.601563-17.757812 9.382813-9.867188 9.734375-12.878906 24.464844-7.617188 37.289062 5.257813 12.824219 17.746094 21.199219 31.605469 21.199219 13.863281 0 26.351563-8.375 31.609375-21.199219 5.261719-12.824218 2.25-27.554687-7.617188-37.289062-4.921874-4.984375-11.308593-8.269532-18.222656-9.382813v-28.402343h51.378906c3.3125 0 5.621094-2.925782 5.621094-6.242188v-37.757812h39v78.660156c-17.300781 3.105468-29.367187 18.90625-27.804687 36.414062 1.558593 17.507813 16.226562 30.925782 33.804687 30.925782 17.574219 0 32.242188-13.417969 33.800782-30.925782 1.5625-17.507812-10.503907-33.308594-27.800782-36.414062v-78.660156h39v37.757812c0 3.316406 2.304688 6.242188 5.617188 6.242188h51.382812v28.402343c-6.921875 1.113281-13.304687 4.398438-18.234375 9.382813-13.171875 13.238281-13.136719 34.644531.082031 47.835937 13.214844 13.195313 34.621094 13.195313 47.835938 0 13.21875-13.191406 13.253906-34.597656.082031-47.835937-4.890625-4.785156-11.0625-8.042969-17.765625-9.382813v-34.644531c0-3.3125-3.164062-5.757812-6.480468-5.757812h-50.519532v-32h91c3.585938 15.347656 17.296875 26.183593 33.058594 26.125 13.738281-.011719 26.117188-8.296876 31.363281-20.996094 5.246094-12.695313 2.324219-27.300782-7.402343-37.003906-13.226563-13.234376-35.019532-13.246094-48.019532-.011719zm-183.066406-133.636719c-6.988281-6.863281-10.929688-16.242188-10.933594-26.039062v-3.21875c24.527344-4.773438 45.90625-19.675782 58.871094-41.042969 1.617188.585937 3.152344 1.359375 4.585938 2.308593 6.570312 4.375 10.472656 11.789063 10.359374 19.6875l.183594 4.214844v17.515625c.0625 14.964844-8.882812 28.503907-22.671875 34.3125-13.792969 5.8125-29.730469 2.757813-40.394531-7.742187zm75.066406-44-.164062-4.125c.238281-11.957031-5.636719-23.210938-15.578125-29.855469-4.011719-2.703125-8.582031-4.457031-13.371094-5.136719-2.476563-.34375-4.90625.875-6.113281 3.066407-19.199219 35.132812-53.109375 39.191406-55.914063 39.46875-3.792969.15625-6.804687 3.25-6.859375 7.046875v7.5c.03125 2.382812.230469 4.761718.605469 7.117187-4.4375-9.074219-6.941406-18.964843-7.359375-29.058593-.410156-9.246094 1.523438-18.449219 5.617188-26.753907 6.9375-13.921875 20.097656-24.558593 36.085937-29.179687 8.960937-2.773438 18.652344-1.972656 27.039063 2.230468 7.902343 4.113282 14.09375 10.898438 17.472656 19.144532l.21875.667968c.984375 2.945313 4.058594 4.65625 7.082031 3.9375 1.507813-.359374 9.296875-1.511718 14.363281 11.023438 5.082032 12.597656 4.792969 26.898438-.816406 40.289062-.882812 2.269532-1.878906 4.492188-2.984375 6.660157.371094-2.1875.597656-4.398438.675781-6.617188zm-64 73.125v-8.921875c4 1.601563 9.597656 2.320313 14.867188 2.320313h.367187c5.015625 0 10-.804688 14.765625-2.375v9.65625c0 8.28125-6.71875 15-15 15-8.285156 0-15-6.71875-15-15zm-11.882812 6.398438c2.484375 12 13.535156 21.949218 26.75 21.949218 13.21875 0 24.269531-9.949218 26.753906-21.949218h12.914062c15.082032-.070313 27.804688 11.210937 29.542969 26.191406-40.464843 32.0625-97.667969 32.082031-138.15625.050781 1.730469-14.992187 14.449219-26.289063 29.539063-26.242187zm-84.191406-60.917969c.054687-50.117188 33.664062-93.992188 82.039062-107.09375 48.375-13.101563 99.53125 7.816406 124.867188 51.0625 25.335937 43.242187 18.574218 98.097656-16.503907 133.890625-5.535156-17.292969-21.636719-29.003906-39.792969-28.941406h-12.535156v-1.335938c4.160156-3.140625 8.066406-6.609375 11.679688-10.371094 10.796875-10.789062 18.785156-22.160156 23.660156-33.800781 6.839844-16.324219 7.167969-33.875.890625-49.417969-4.738281-11.75-13.464844-18.671875-23.105469-18.785156-10.265625-21.5-34.722656-32.238281-57.5-25.253906-19.199218 5.546875-35.050781 18.433594-43.484375 35.355468-4.921875 10.132813-7.207031 21.347657-6.636719 32.601563 1.167969 28.332031 16.5 54.699219 40.5 68.253906v2.753907h-12.542968c-18.15625-.058594-34.253906 11.652343-39.789063 28.941406-20.367187-20.796875-31.765625-48.75-31.746093-77.859375zm25.484374 296.699219c.027344 12.082031-9.714843 21.914062-21.796874 22-12.085938.085937-21.964844-9.609376-22.105469-21.691407-.144531-12.082031 9.503906-22.007812 21.585937-22.207031.125.007812.253906.019531.382813.019531.128906 0 .253906-.011719.382812-.019531 11.960938.183594 21.558594 9.9375 21.550781 21.898438zm-79.96875-98.164063c-8.5625 8.554687-22.441406 8.550781-31-.011719-8.558593-8.558594-8.558593-22.4375 0-31 8.558594-8.558594 22.4375-8.5625 31-.007812 8.550782 8.570312 8.550782 22.445312 0 31.019531zm187.492188 104.441406c0 9.925781-6.667969 18.617188-16.257812 21.1875-9.589844 2.566407-19.707032-1.625-24.671876-10.222656-4.964843-8.59375-3.535156-19.453125 3.484376-26.476563 3.984374-4 9.371093-6.292968 15.015624-6.398437.164063.011719.328126.023437.492188.023437.167969 0 .332031-.011718.492188-.023437 11.921874.25 21.449218 9.988281 21.441406 21.910156zm101.097656 9.230469c-6.980468 7.003906-17.78125 8.472656-26.375 3.585938-8.597656-4.890626-12.859375-14.921876-10.410156-24.503907 2.449219-9.578125 11.007812-16.335937 20.894531-16.496093.125.007812.253907.019531.378907.019531.128906 0 .257812-.011719.386718-.019531 8.800782.140624 16.664063 5.535156 19.960938 13.695312 3.300781 8.160156 1.394531 17.503906-4.835938 23.71875zm73.542969-113.671875c-8.585937 8.429687-22.363281 8.367187-30.871094-.144531-8.511719-8.507813-8.578125-22.285156-.148437-30.871094 8.566406-8.566406 22.453125-8.566406 31.019531 0 8.566406 8.5625 8.566406 22.453125 0 31.019531zm0 0" fill="url(#linear0)"/></svg>