<svg height="478pt" viewBox="-26 0 478 478.001" width="478pt" xmlns="http://www.w3.org/2000/svg" xmlns:xlink="http://www.w3.org/1999/xlink"><linearGradient id="lg1"><stop offset="0" stop-color="#00efd1"/><stop offset="1" stop-color="#00acea"/></linearGradient><linearGradient id="linear0" gradientUnits="userSpaceOnUse" x1="242.157179" x2="242.157179" xlink:href="#lg1" y1="38.827" y2="437.912"/><linearGradient id="linear1" gradientUnits="userSpaceOnUse" x1="257.157179" x2="257.157179" xlink:href="#lg1" y1="38.827" y2="437.912"/><linearGradient id="linear2" gradientUnits="userSpaceOnUse" x1="223.157179" x2="223.157179" xlink:href="#lg1" y1="38.827" y2="437.912"/><linearGradient id="linear3" gradientUnits="userSpaceOnUse" x1="137.657179" x2="137.657179" xlink:href="#lg1" y1="38.827" y2="437.912"/><linearGradient id="linear4" gradientUnits="userSpaceOnUse" x1="288.657179" x2="288.657179" xlink:href="#lg1" y1="38.827" y2="437.912"/><linearGradient id="linear5" gradientUnits="userSpaceOnUse" x1="212.157179" x2="212.157179" xlink:href="#lg1" y1="38.827" y2="437.912"/><linearGradient id="linear6" gradientUnits="userSpaceOnUse" x1="213.157179" x2="213.157179" xlink:href="#lg1" y1="38.827" y2="437.912"/><linearGradient id="linear7" gradientUnits="userSpaceOnUse" x1="65.157179" x2="65.157179" xlink:href="#lg1" y1="38.827" y2="437.912"/><linearGradient id="linear8" gradientUnits="userSpaceOnUse" x1="65.658179" x2="65.658179" xlink:href="#lg1" y1="38.827" y2="437.912"/><linearGradient id="linear9" gradientUnits="userSpaceOnUse" x1="360.157179" x2="360.157179" xlink:href="#lg1" y1="38.827" y2="437.912"/><linearGradient id="linear10" gradientUnits="userSpaceOnUse" x1="360.656179" x2="360.656179" xlink:href="#lg1" y1="38.827" y2="437.912"/><path d="m185.15625 29h114v12h-114zm0 0" fill="url(#linear0)"/><path d="m185.15625 57h144v12h-144zm0 0" fill="url(#linear1)"/><path d="m90.320312 142.578125c.832032.4375 1.753907.664063 2.691407.664063 1.261719-.054688 2.476562-.496094 3.472656-1.269532l29.039063-20.972656h179.207031c3.316406 0 6.425781-2.390625 6.425781-5.699219v-18.300781h9.253906l29.058594 20.914062c1.019531.742188 2.242188 1.152344 3.5 1.167969.984375.007813 1.953125-.210937 2.835938-.640625 2.023437-1.007812 3.3125-3.058594 3.351562-5.316406v-107.023438c-.082031-3.371093-2.820312-6.0664058-6.191406-6.101562h-191.761719c-3.34375.0429688-6.03125 2.757812-6.046875 6.101562v17.898438h-62.191406c-3.316406.121094-5.914063 2.902344-5.808594 6.21875v107.023438c-.039062 2.234374 1.1875 4.300781 3.164062 5.335937zm76.835938-130.578125h180v89.445312l-21.226562-15.234374c-1.046876-.757813-2.300782-1.179688-3.59375-1.210938h-155.179688zm-68 24h56v55.179688c.019531 1.578124.667969 3.082031 1.804688 4.175781 1.136718 1.09375 2.664062 1.6875 4.242187 1.644531h137.953125v12h-175.5625c-1.238281.054688-2.425781.5-3.398438 1.269531l-21.039062 15.292969zm0 0" fill="url(#linear2)"/><path d="m166.15625 168.4375c0-15.707031-12.730469-28.4375-28.4375-28.4375h-.125c-15.707031 0-28.4375 12.730469-28.4375 28.4375v9.125c0 15.707031 12.730469 28.4375 28.4375 28.4375h.125c15.707031 0 28.4375-12.730469 28.4375-28.4375zm-12 9.125c0 9.078125-7.359375 16.4375-16.4375 16.4375h-.125c-9.078125 0-16.4375-7.359375-16.4375-16.4375v-9.125c0-9.078125 7.359375-16.4375 16.4375-16.4375h.125c9.078125 0 16.4375 7.359375 16.4375 16.4375zm0 0" fill="url(#linear3)"/><path d="m317.15625 168.4375c0-15.707031-12.730469-28.4375-28.4375-28.4375h-.125c-15.707031 0-28.4375 12.730469-28.4375 28.4375v9.125c0 15.707031 12.730469 28.4375 28.4375 28.4375h.125c15.707031 0 28.4375-12.730469 28.4375-28.4375zm-12 9.125c0 9.078125-7.359375 16.4375-16.4375 16.4375h-.125c-9.078125 0-16.4375-7.359375-16.4375-16.4375v-9.125c0-9.078125 7.359375-16.4375 16.4375-16.4375h.125c9.078125 0 16.4375 7.359375 16.4375 16.4375zm0 0" fill="url(#linear4)"/><path d="m245.15625 190.835938c0-18.136719-14.699219-32.835938-32.835938-32.835938h-.328124c-18.132813 0-32.835938 14.699219-32.835938 32.835938v11.328124c0 18.136719 14.703125 32.835938 32.835938 32.835938h.328124c18.136719 0 32.835938-14.699219 32.835938-32.835938zm-12 11.328124c0 11.507813-9.328125 20.835938-20.835938 20.835938h-.328124c-11.507813 0-20.835938-9.328125-20.835938-20.835938v-11.328124c0-11.507813 9.328125-20.835938 20.835938-20.835938h.328124c11.507813 0 20.835938 9.328125 20.835938 20.835938zm0 0" fill="url(#linear5)"/><path d="m244.757812 247h-5.324218c-2.507813-.054688-4.777344 1.488281-5.644532 3.839844l-5.992187 16.609375-10.683594-11.460938c-1.121093-1.234375-2.703125-1.953125-4.375-1.988281h-.070312c-1.691407.035156-3.292969.785156-4.402344 2.0625l-9.597656 10.761719-5.199219-15.828125c-.820312-2.4375-3.128906-4.058594-5.703125-4h-6.191406c-9.539063-.039063-18.640625 3.996094-25.015625 11.089844-6.355469 7.007812-9.414063 16.394531-8.402344 25.800781v52.234375c-.070312 9.683594 3.789062 18.976562 10.691406 25.765625l4.734375 4.6875c4.351563 4.214843 6.925781 9.941406 7.179688 16l4.242187 89.65625c.132813 3.207031 2.753906 5.742187 5.964844 5.769531h64.527344c3.210937-.023438 5.84375-2.554688 5.992187-5.765625l4.273438-89.699219c.28125-6.035156 2.847656-11.738281 7.183593-15.949218l4.613282-4.734376c6.84375-6.78125 10.664062-16.039062 10.597656-25.675781v-52.285156c.976562-9.441406-2.101562-18.855469-8.472656-25.890625-6.371094-7.039062-15.433594-11.035156-24.925782-11zm-31.90625 22.007812 5.039063 5.359376 6.886719 64.132812-11.621094 11.617188-11.617188-11.617188 6.9375-64.609375zm53.578126 13.992188c-.019532.199219-.273438.398438-.273438.605469v52.574219c.078125 6.398437-2.4375 12.554687-6.964844 17.070312l-4.734375 4.726562c-6.503906 6.351563-10.34375 14.9375-10.742187 24.019532l-3.941406 84.003906h-53.085938l-4-83.945312c-.421875-9.125-4.320312-17.742188-10.894531-24.082032l-4.609375-4.699218c-4.566406-4.527344-7.101563-10.714844-7.027344-17.144532v-52.527344c0-.203124-.253906-.40625-.273438-.609374-.675781-6.140626 1.308594-12.28125 5.453126-16.867188 4.144531-4.585938 10.050781-7.179688 16.230468-7.132812h1.835938l7.078125 21.617187c.710937 2.128906 2.5625 3.671875 4.785156 3.988281l-5.964844 55.5c-.195312 1.796875.441407 3.589844 1.722657 4.867188l17.890624 17.878906c2.347657 2.34375 6.144532 2.339844 8.484376-.003906l17.894531-17.894532c1.28125-1.285156 1.914062-3.078124 1.71875-4.882812l-5.960938-55.527344c.097657-.015625.199219-.023437.296875-.042968 2.03125-.371094 3.710938-1.78125 4.429688-3.714844l7.871094-21.777344h1.101562c6.179688-.046875 12.085938 2.546875 16.226562 7.132812 4.140626 4.585938 6.125 10.726563 5.449219 16.867188zm0 0" fill="url(#linear6)"/><path d="m98.15625 190.835938c0-18.132813-14.699219-32.835938-32.835938-32.835938h-.328124c-18.132813 0-32.835938 14.703125-32.835938 32.835938v11.328124c0 18.132813 14.703125 32.835938 32.835938 32.835938h.328124c18.136719 0 32.835938-14.703125 32.835938-32.835938zm-12 11.328124c0 11.507813-9.328125 20.835938-20.835938 20.835938h-.328124c-11.507813 0-20.835938-9.328125-20.835938-20.835938v-11.328124c0-11.507813 9.328125-20.835938 20.835938-20.835938h.328124c11.507813 0 20.835938 9.328125 20.835938 20.835938zm0 0" fill="url(#linear7)"/><path d="m97.285156 247h-5.328125c-2.507812-.054688-4.777343 1.488281-5.648437 3.839844l-5.992188 16.609375-10.679687-11.460938c-1.121094-1.230469-2.699219-1.949219-4.367188-1.988281h-.074219c-1.691406.035156-3.289062.785156-4.398437 2.0625l-9.601563 10.765625-5.199218-15.828125c-.820313-2.4375-3.128906-4.058594-5.703125-4h-6.195313c-9.613281-.042969-18.796875 3.984375-25.28125 11.089844-6.429687 6.972656-9.578125 16.359375-8.660156 25.800781v52.238281c.03125 9.710938 3.980469 19.003906 10.957031 25.761719l4.863281 4.6875c4.375 4.210937 6.96875 9.933594 7.25 16l4.273438 89.65625c.152344 3.210937 2.785156 5.746094 6 5.765625h64.527344c3.214844-.023438 5.84375-2.554688 5.992187-5.765625l4.277344-89.699219c.277344-6.035156 2.847656-11.738281 7.179687-15.949218l4.851563-4.734376c6.90625-6.757812 10.8125-16.007812 10.828125-25.675781v-52.285156c.929688-9.4375-2.210938-18.824219-8.632812-25.804687-6.464844-7.097657-15.636719-11.128907-25.238282-11.085938zm-31.90625 22.007812 5.039063 5.359376 6.886719 64.132812-11.617188 11.617188-11.617188-11.617188 6.9375-64.609375zm53.816406 13.992188c-.019531.199219-.039062.398438-.039062.605469v52.574219c-.011719 6.425781-2.605469 12.578124-7.199219 17.070312l-4.851562 4.726562c-6.519531 6.34375-10.382813 14.933594-10.800781 24.019532l-4 84.007812h-53.085938l-4-83.945312c-.421875-9.125-4.320312-17.742188-10.894531-24.082032l-4.875-4.703124c-4.644531-4.5-7.273438-10.679688-7.292969-17.144532v-52.527344c0-.203124.011719-.40625-.007812-.609374-.613282-6.171876 1.429687-12.316407 5.617187-16.894532 4.1875-4.582031 10.125-7.160156 16.332031-7.097656h1.835938l7.078125 21.613281c.699219 2.113281 2.523437 3.65625 4.722656 3.996094.019531 0 .039063-.03125.058594-.027344l-5.960938 55.507813c-.195312 1.800781.4375 3.59375 1.722657 4.875l17.890624 17.886718c2.34375 2.339844 6.140626 2.339844 8.484376 0l17.890624-17.894531c1.28125-1.28125 1.917969-3.078125 1.722657-4.882812l-5.964844-55.527344c.101563-.015625.199219-.019531.300781-.042969 2.027344-.371094 3.710938-1.78125 4.425782-3.714844l7.875-21.789062h1.101562c6.199219-.058594 12.136719 2.523438 16.316406 7.105469 4.183594 4.578125 6.214844 10.722656 5.59375 16.894531zm0 0" fill="url(#linear8)"/><path d="m393.15625 190.835938c0-18.136719-14.699219-32.835938-32.835938-32.835938h-.328124c-18.132813 0-32.835938 14.699219-32.835938 32.835938v11.328124c0 18.136719 14.703125 32.835938 32.835938 32.835938h.328124c18.136719 0 32.835938-14.699219 32.835938-32.835938zm-12 11.328124c0 11.507813-9.328125 20.835938-20.835938 20.835938h-.328124c-11.507813 0-20.835938-9.328125-20.835938-20.835938v-11.328124c0-11.507813 9.328125-20.835938 20.835938-20.835938h.328124c11.507813 0 20.835938 9.328125 20.835938 20.835938zm0 0" fill="url(#linear9)"/><path d="m392.222656 247h-5.320312c-2.507813-.054688-4.777344 1.488281-5.648438 3.839844l-5.992187 16.609375-10.679688-11.394531c-1.160156-1.210938-2.765625-1.898438-4.445312-1.90625-1.679688.015624-3.277344.738281-4.398438 1.988281l-9.601562 10.726562-5.199219-15.847656c-.820312-2.445313-3.132812-4.070313-5.707031-4.015625h-6.191407c-9.605468-.042969-18.78125 3.988281-25.25 11.089844-6.421874 6.976562-9.5625 16.363281-8.632812 25.796875v52.234375c.019531 9.710937 3.960938 19.003906 10.925781 25.765625l4.851563 4.6875c4.371094 4.210937 6.960937 9.9375 7.242187 16l4.269531 89.660156c.148438 3.207031 2.777344 5.742187 5.992188 5.765625h64.527344c3.210937-.023438 5.84375-2.554688 5.992187-5.765625l4.273438-89.699219c.28125-6.035156 2.851562-11.742187 7.183593-15.949218l4.878907-4.734376c6.917969-6.753906 10.832031-16.003906 10.863281-25.675781v-52.285156c.917969-9.441406-2.230469-18.828125-8.660156-25.804687-6.480469-7.101563-15.660156-11.128907-25.273438-11.085938zm-31.902344 22.007812 5.035157 5.359376 6.890625 64.132812-11.617188 11.617188-11.617187-11.617188 6.9375-64.609375zm53.847657 13.992188c-.023438.199219-.011719.398438-.011719.605469v52.574219c-.023438 6.429687-2.628906 12.582031-7.230469 17.070312l-4.867187 4.726562c-6.519532 6.34375-10.386719 14.929688-10.808594 24.019532l-4.003906 84.003906h-53.089844l-4-83.945312c-.421875-9.125-4.320312-17.742188-10.894531-24.082032l-4.84375-4.699218c-4.632813-4.503907-7.25-10.6875-7.261719-17.144532v-52.527344c0-.203124-.019531-.40625-.039062-.609374-.621094-6.171876 1.414062-12.316407 5.597656-16.894532 4.183594-4.582031 10.121094-7.164062 16.324218-7.105468h1.835938l7.078125 21.617187c.699219 2.113281 2.523437 3.65625 4.722656 3.992187.019531 0 .039063-.027343.058594-.027343l-5.964844 55.511719c-.191406 1.800781.441407 3.59375 1.726563 4.875l17.890625 17.882812c2.34375 2.34375 6.140625 2.34375 8.484375 0l17.890625-17.890625c1.28125-1.285156 1.914062-3.078125 1.722656-4.882813l-5.964844-55.527343c.101563-.015625.199219-.023438.300781-.042969 2.027344-.371094 3.707032-1.78125 4.425782-3.714844l7.875-21.785156h1.101562c6.203125-.0625 12.140625 2.519531 16.328125 7.101562 4.1875 4.578126 6.226563 10.722657 5.613281 16.898438zm0 0" fill="url(#linear10)"/></svg>