<svg height="460pt" viewBox="-15 0 460 460.49307" width="460pt" xmlns="http://www.w3.org/2000/svg" xmlns:xlink="http://www.w3.org/1999/xlink"><linearGradient id="lg1"><stop offset="0" stop-color="#00efd1"/><stop offset="1" stop-color="#00acea"/></linearGradient><linearGradient id="linear0" gradientUnits="userSpaceOnUse" x1="215.302918" x2="215.302918" xlink:href="#lg1" y1="1.954657" y2="452.489657"/><linearGradient id="linear1" gradientUnits="userSpaceOnUse" x1="213.802918" x2="213.802918" xlink:href="#lg1" y1="1.954657" y2="452.489657"/><path d="m372.304688 282.605469v.039062c-5.058594 5.445313-8.382813 12.265625-9.558594 19.601563h-141.441406v-56.25c66.71875-3.253906 118.664062-59.144532 117.035156-125.925782s-56.234375-120.070312-123.035156-120.070312c-66.804688 0-121.410157 53.289062-123.039063 120.070312s50.316406 122.671876 117.039063 125.925782v56.246094h-141.445313c-.992187-7.40625-4.371094-14.289063-9.628906-19.597657-10.941407-10.957031-27.914063-13.125-41.257813-5.265625s-19.679687 23.746094-15.40625 38.632813c4.269532 14.882812 18.074219 24.992187 33.550782 24.578125 15.480468-.417969 28.71875-11.253906 32.1875-26.347656h91v32h-50.523438c-3.3125 0-6.476562 2.695312-6.476562 6.007812v34.644531c-6.703126 1.339844-12.875 4.601563-17.757813 9.382813-9.871094 9.734375-12.878906 24.464844-7.617187 37.289062 5.257812 12.824219 17.746093 21.199219 31.605468 21.199219 13.863282 0 26.351563-8.375 31.609375-21.199219 5.261719-12.824218 2.25-27.554687-7.617187-37.289062-4.925782-4.984375-11.308594-8.269532-18.222656-9.382813v-28.652343h51.378906c1.550781-.015626 3.03125-.660157 4.089844-1.792969 1.0625-1.132813 1.613281-2.648438 1.53125-4.199219v-38.007812h39v78.910156c-17.300782 3.105468-29.367188 18.90625-27.804688 36.414062 1.558594 17.507813 16.226562 30.925782 33.804688 30.925782 17.574218 0 32.242187-13.417969 33.800781-30.925782 1.5625-17.507812-10.503907-33.308594-27.800781-36.414062v-78.910156h39v38.007812c-.085938 1.550781.464843 3.066406 1.527343 4.199219 1.0625 1.132812 2.539063 1.777343 4.089844 1.792969h51.382813v28.652343c-6.921876 1.113281-13.308594 4.398438-18.234376 9.382813-13.171874 13.238281-13.136718 34.644531.082032 47.835937 13.214844 13.195313 34.621094 13.195313 47.835937 0 13.21875-13.191406 13.253907-34.597656.082031-47.835937-4.890624-4.78125-11.0625-8.042969-17.765624-9.382813v-34.644531c0-3.3125-3.164063-6.007812-6.480469-6.007812h-50.519531v-32h91c3.230468 14.050781 14.992187 24.523437 29.320312 26.117187 14.332031 1.589844 28.101562-6.050781 34.335938-19.050781 6.238281-13 3.574218-28.523438-6.636719-38.703125-13.222657-13.230469-35.019531-13.234375-48.019531 0zm-221.015626-120.257813c-.777343-7.632812 1.691407-15.242187 6.796876-20.96875 5.109374-5.722656 12.390624-9.039062 20.0625-9.132812h2.925781l8.5625 26.511718c.867187 2.484376 3.160156 4.183594 5.789062 4.289063l-7.132812 66.417969c-.050781.449218-.054688.898437-.007813 1.347656-13.273437-3.324219-25.8125-9.085938-36.980468-16.988281v-50.871094c0-.203125.003906-.402344-.015626-.605469zm49.242188 65.566406 8.253906-76.835937 6.136719-6.855469 6.957031 7.402344 8.195313 76.289062-5.875 5.875c-2.933594.234376-5.898438.351563-8.898438.355469-3 .003907-5.96875-.113281-8.902343-.355469zm78.785156-65.566406c-.019531.199219-.011718.398438-.011718.605469v50.871094c-11.171876 7.90625-23.710938 13.671875-36.984376 17 .050782-.441407.050782-.890625 0-1.332031l-7.136718-66.394532c.4375.007813.875-.03125 1.300781-.117187 2.066406-.507813 3.734375-2.035157 4.425781-4.046875l9.515625-26.691406h2.042969c7.667969.097656 14.945312 3.410156 20.054688 9.136718 5.105468 5.722656 7.570312 13.332032 6.792968 20.964844zm-175.097656-39.273437c.183594-61.222657 49.863281-110.753907 111.085938-110.753907 61.21875 0 110.902343 49.53125 111.085937 110.753907.203125 30.714843-12.53125 60.097656-35.085937 80.949219v-40.78125c1.023437-10.964844-2.597657-21.855469-9.976563-30.027344-7.382813-8.171875-17.847656-12.878906-28.859375-12.972656h-6.265625c-2.566406.085937-4.8125 1.746093-5.644531 4.175781l-7.632813 21.335937-13.742187-14.566406c-1.160156-1.21875-2.773438-1.894531-4.457032-1.867188-1.679687.027344-3.269531.757813-4.386718 2.011719l-12.519532 14-6.6875-20.742187c-.78125-2.515625-3.070312-4.257813-5.703124-4.347656h-7.28125c-11.011719.09375-21.484376 4.796874-28.867188 12.96875-7.382812 8.171874-11 19.066406-9.976562 30.03125v40.777343c-22.558594-20.847656-35.292969-50.230469-35.089844-80.945312zm25.5 297.199219c.027344 12.082031-9.714844 21.914062-21.796875 22-12.085937.085937-21.964844-9.609376-22.105469-21.691407-.144531-12.082031 9.503906-22.007812 21.585938-22.207031.125.007812.253906.019531.382812.019531s.253906-.011719.382813-.019531c11.960937.183594 21.558593 9.9375 21.550781 21.898438zm-79.972656-98.164063c-8.5625 8.554687-22.441406 8.550781-31-.011719-8.558594-8.558594-8.558594-22.4375 0-31 8.558594-8.558594 22.4375-8.5625 31-.007812 8.550781 8.570312 8.550781 22.445312 0 31.019531zm187.492187 104.441406c0 9.925781-6.667969 18.617188-16.257812 21.1875-9.589844 2.570313-19.707031-1.621093-24.671875-10.21875-4.964844-8.597656-3.535156-19.457031 3.484375-26.476562 3.984375-4 9.371093-6.296875 15.015625-6.398438.164062.011719.328125.023438.492187.023438.167969 0 .332031-.011719.492188-.023438 11.921875.246094 21.449219 9.984375 21.441406 21.90625zm101.097657 9.230469c-6.980469 7.003906-17.78125 8.472656-26.375 3.585938-8.597657-4.890626-12.859376-14.921876-10.410157-24.503907 2.449219-9.578125 11.007813-16.335937 20.894531-16.496093.125.007812.253907.019531.378907.019531.128906 0 .257812-.011719.386719-.019531 8.800781.140624 16.664062 5.535156 19.960937 13.695312 3.300781 8.160156 1.394531 17.503906-4.835937 23.71875zm73.542968-113.671875c-8.578125 8.496094-22.40625 8.460937-30.945312-.074219-8.535156-8.539062-8.566406-22.367187-.074219-30.945312 8.566406-8.566406 22.457031-8.566406 31.019531 0 8.566406 8.566406 8.566406 22.453125.003906 31.019531zm0 0" fill="url(#linear0)"/><path d="m251.304688 72.742188c0-20.710938-16.792969-37.5-37.5-37.5-20.710938 0-37.5 16.789062-37.5 37.5v13c0 20.710937 16.789062 37.5 37.5 37.5 20.707031 0 37.5-16.789063 37.5-37.5zm-12 13c0 14.082031-11.417969 25.5-25.5 25.5-14.085938 0-25.5-11.417969-25.5-25.5v-13c0-14.082032 11.414062-25.5 25.5-25.5 14.082031 0 25.5 11.417968 25.5 25.5zm0 0" fill="url(#linear1)"/></svg>