<svg height="490pt" viewBox="-15 0 490 490" width="490pt" xmlns="http://www.w3.org/2000/svg" xmlns:xlink="http://www.w3.org/1999/xlink"><linearGradient id="lg1"><stop offset="0" stop-color="#00efd1"/><stop offset="1" stop-color="#00acea"/></linearGradient><linearGradient id="linear0" gradientUnits="userSpaceOnUse" x1="351.935" x2="351.935" xlink:href="#lg1" y1="16.712" y2="467.247"/><linearGradient id="linear1" gradientUnits="userSpaceOnUse" x1="351.874" x2="351.874" xlink:href="#lg1" y1="16.712" y2="467.247"/><linearGradient id="linear2" gradientUnits="userSpaceOnUse" x1="332.281" x2="332.281" xlink:href="#lg1" y1="16.712" y2="467.247"/><linearGradient id="linear3" gradientUnits="userSpaceOnUse" x1="131" x2="131" xlink:href="#lg1" y1="16.712" y2="467.247"/><path d="m427.734375 1.457031-150.652344-1.457031h-.28125c-17.554687 0-31.800781 14.078125-31.800781 31.023438v.011718l-.671875 85.566406c-.089844 8.300782 3.257813 16.273438 9.246094 22.023438 6.007812 5.828125 14.035156 9.101562 22.40625 9.140625l9.449219.179687-3.125 50.855469c-.144532 2.359375 1.109374 4.585938 3.207031 5.683594 2.09375 1.097656 4.636719.859375 6.496093-.609375l69.914063-55.238281 64.742187.367187h.285157c17.550781 0 31.898437-13.667968 32.042969-30.625l.546874-85.5625c.070313-8.335937-3.296874-16.335937-9.304687-22.117187-6.027344-5.867188-14.089844-9.179688-22.5-9.242188zm19.257813 116.84375c-.085938 10.417969-9.1875 18.84375-20.242188 18.726563l-66.859375-.390625c-1.359375.015625-2.675781.46875-3.753906 1.292969l-61.035157 48.210937 2.675782-43.707031c.101562-1.632813-.46875-3.234375-1.578125-4.4375s-2.660157-1.898438-4.296875-1.929688l-15.785156-.300781c-5.3125-.003906-10.414063-2.066406-14.238282-5.75-3.648437-3.472656-5.699218-8.292969-5.667968-13.328125l.546874-85.570312c.089844-10.417969 9.167969-18.808594 20.226563-18.726563l150.652344 1.261719c5.308593.007812 10.414062 2.066406 14.242187 5.75 3.644532 3.472656 5.695313 8.292968 5.667969 13.328125zm0 0" fill="url(#linear0)"/><path d="m401.480469 49h-99.210938c-3.3125 0-6 2.6875-6 6s2.6875 6 6 6h99.210938c3.3125 0 6-2.6875 6-6s-2.6875-6-6-6zm0 0" fill="url(#linear1)"/><path d="m362.292969 84h-60.023438c-3.3125 0-6 2.6875-6 6s2.6875 6 6 6h60.023438c3.3125 0 6-2.6875 6-6s-2.6875-6-6-6zm0 0" fill="url(#linear2)"/><path d="m196.648438 362h-24.648438v-7.164062c7-4.933594 13.28125-10.855469 20.472656-18.039063 17.53125-17.507813 30.457032-35.921875 38.335938-54.726563 10.921875-26.078124 11.453125-54.085937 1.449218-78.871093-3.558593-8.816407-8.929687-16.421875-15.144531-21.410157-6.105469-5.140624-13.964843-7.714843-21.925781-7.191406-7.691406-16.542968-19.835938-29.382812-35.285156-37.242187-17.058594-8.679688-37.097656-10.386719-56.433594-4.800781-30.753906 8.886718-56.125 29.5-69.601562 56.542968-7.917969 16.179688-11.621094 34.09375-10.769532 52.089844 1.914063 46.398438 27.902344 89.519531 66.902344 110.945312v9.867188h-24.347656c-35.953125 0-65.652344 29.507812-65.652344 65.457031v56.152344c.183594 3.476563 2.980469 6.242187 6.457031 6.390625h249.386719c3.417969-.171875 6.113281-2.96875 6.15625-6.390625v-56.152344c-.09375-36.070312-29.28125-65.304687-65.351562-65.457031zm-94.648438 6.253906v-20.40625c9.21875 3.824219 19.105469 5.777344 29.082031 5.742188h.421875c9.792969-.085938 19.476563-2.089844 28.5-5.898438v21.6875c0 16.015625-12.984375 29-29 29s-29-12.984375-29-29v-1.125zm94-121.285156v29.019531c0 35.910157-28.984375 65.339844-64.398438 65.601563-17.289062.144531-33.925781-6.597656-46.234374-18.738282-12.308594-12.144531-19.277344-28.6875-19.367188-45.976562v-8.648438c15-2.183593 67.242188-13.832031 99.632812-69.347656 4.113282 1.085938 8.015626 2.851563 11.546876 5.222656 11.957031 8.011719 19.007812 21.558594 18.71875 35.949219zm-161.066406-6.277344c-.71875-15.980468 2.609375-31.886718 9.671875-46.242187 11.988281-24.046875 34.65625-42.40625 62.195312-50.363281 16.640625-4.808594 33.121094-3.4375 47.664063 3.964843 13.699218 6.96875 24.355468 18.664063 30.835937 33.828125l.417969 1.257813c.984375 2.945312 4.054688 4.65625 7.078125 3.9375 17.398437-4.125 26.671875 16.449219 28.355469 20.617187 8.8125 21.832032 8.324218 46.601563-1.371094 69.742188-5.253906 12.351562-12.210938 23.902344-20.660156 34.328125 5.78125-11.039063 8.828125-23.308594 8.878906-35.773438v-28.929687l-.074219-6.835938c.402344-18.453125-8.628906-35.839844-23.957031-46.117187-6.136719-4.144531-13.128906-6.839844-20.457031-7.890625-2.476563-.339844-4.90625.878906-6.109375 3.066406-33 60.402344-91.664063 67.039062-95.765625 67.433594-4.207031.121094-7.574219 3.535156-7.636719 7.742187v12.417969c.003906 14.652344 4.230469 28.996094 12.171875 41.308594-19.019531-21.46875-30.050781-48.835938-31.238281-77.492188zm215.066406 237.308594h-238v-50.542969c0-29.332031 24.320312-53.457031 53.652344-53.457031h24.328125c2.476562 20.742188 20.066406 36.359375 40.953125 36.359375 20.890625 0 38.480468-15.617187 40.953125-36.359375h24.761719c29.445312.144531 53.265624 24.011719 53.351562 53.457031zm0 0" fill="url(#linear3)"/></svg>