<svg height="472pt" viewBox="0 0 472.12738 472" width="472pt" xmlns="http://www.w3.org/2000/svg" xmlns:xlink="http://www.w3.org/1999/xlink"><linearGradient id="lg1"><stop offset="0" stop-color="#00efd1"/><stop offset="1" stop-color="#00acea"/></linearGradient><linearGradient id="linear0" gradientUnits="userSpaceOnUse" x1="354.127377" x2="354.127377" xlink:href="#lg1" y1="24.83375" y2="458.47775"/><linearGradient id="linear1" gradientUnits="userSpaceOnUse" x1="114.127377" x2="114.127377" xlink:href="#lg1" y1="24.83375" y2="458.47775"/><linearGradient id="linear2" gradientUnits="userSpaceOnUse" x1="114.626377" x2="114.626377" xlink:href="#lg1" y1="24.83375" y2="458.47775"/><path d="m466.074219.0625h-88.722657c-3.355468-.0117188-6.117187 2.644531-6.222656 6v42h-61.292968c-3.316407 0-5.707032 3.019531-5.707032 6.335938v175.664062h-68v12h68v175.667969c0 3.3125 2.390625 6.332031 5.707032 6.332031h61.292968v42c.105469 3.355469 2.867188 6.015625 6.222656 6h88.722657c3.324219.003906 6.027343-2.675781 6.054687-6v-94.890625c-.019531-3.347656-2.710937-6.0625-6.054687-6.109375h-88.722657c-3.378906.035156-6.128906 2.730469-6.222656 6.109375v40.890625h-55v-170h55v41.449219c0 3.3125 2.910156 5.550781 6.222656 5.550781h88.722657c3.3125 0 6.054687-2.238281 6.054687-5.550781v-94.894531c0-3.3125-2.742187-5.554688-6.054687-5.554688h-88.722657c-3.3125 0-6.222656 2.242188-6.222656 5.554688v41.445312h-55v-170h55v40.894531c.09375 3.378907 2.84375 6.074219 6.222656 6.105469h88.722657c3.34375-.042969 6.035156-2.761719 6.054687-6.105469v-94.894531c-.027344-3.324219-2.730468-6.0039062-6.054687-6zm-82.945313 377h77v83h-77zm0-182h77v82h-77zm77-100h-77v-83h77zm0 0" fill="url(#linear0)"/><path d="m114.128906 249.027344c30.375-.035156 54.980469-24.660156 55-55.035156v-34.203126c.078125-17.878906-8.570312-34.679687-23.175781-45 3.425781-13.179687-1.714844-27.101562-12.882813-34.898437-11.167968-7.796875-26.007812-7.820313-37.203124-.058594-11.191407 7.757813-16.375 21.664063-12.992188 34.859375-13.171875 9.167969-21.679688 23.632813-23.289062 39.597656-.21875 2.191407-.457032 17.769532-.457032 17.921876v21.78125c.015625 30.375 24.625 55 55 55.035156zm-20.246094-142.398438c-.003906-7.640625 4.207032-14.660156 10.949219-18.25 6.746094-3.59375 14.917969-3.171875 21.257813 1.09375 6.339844 4.261719 9.808594 11.675782 9.023437 19.277344-6.535156-2.644531-13.515625-4.003906-20.5625-4-7.042969-.007812-14.027343 1.328125-20.566406 3.941406-.066406-.679687-.101563-1.367187-.101563-2.0625zm20.4375 10.121094c11.386719.023438 22.296876 4.570312 30.328126 12.644531 8.027343 8.074219 12.519531 19.007813 12.480468 30.394531v5.375c-.90625.222657-1.828125.347657-2.757812.367188-17.890625 0-31.785156-11.1875-31.785156-25.46875.027343-1.582031-.582032-3.105469-1.6875-4.230469-1.105469-1.128906-2.617188-1.765625-4.195313-1.769531h-1.132813c-3.316406 0-6 2.683594-6 6 0 14.28125-14.011718 25.46875-31.902343 25.46875-2.054688-.023438-4.101563-.257812-6.109375-.699219.039062-4.136719-.015625-8.511719.046875-9.351562 2.085937-22.011719 20.605469-38.804688 42.714843-38.730469zm-43.191406 60.273438c2.101563.328124 4.222656.5 6.351563.511718 16.761719 0 31.148437-7.632812 38.558593-19.136718 7.414063 11.5 21.519532 19.136718 38.28125 19.136718.941407-.007812 1.878907-.074218 2.808594-.207031v16.664063c0 23.746093-19.253906 43-43 43-23.75 0-43-19.253907-43-43zm0 0" fill="url(#linear1)"/><path d="m171.96875 257.0625h-114.824219c-16.152343.023438-31.550781 6.847656-42.417969 18.800781-10.710937 11.847657-15.597656 27.753907-14.597656 43.636719v72.664062c.160156 3.351563 2.960938 5.96875 6.320313 5.898438h216.203125c3.316406 0 6.476562-2.582031 6.476562-5.898438v-72.664062c1-15.882812-3.964844-31.792969-14.675781-43.640625-10.894531-11.953125-26.3125-18.773437-42.484375-18.796875zm-64.769531 41.984375h14.765625l9.96875 48.882813-17.261719 14.570312-16.15625-14.511719zm14.210937-11.984375h-13.71875l-4.152344-18h22.023438zm95.511719 31.539062c-.023437.199219.207031.398438.207031.601563v66.859375h-205v-66.855469c0-.199219.148438-.398437.128906-.601562-1.25-12.671875 2.917969-25.28125 11.464844-34.71875 8.550782-9.433594 20.691406-14.820313 33.421875-14.824219h34.078125l5.175782 22.394531c-.042969.171875-.105469.347657-.136719.527344l-10.097657 56.953125c-.460937 2.109375.246094 4.300781 1.851563 5.746094l22.527344 20.234375c2.230469 2.003906 5.59375 2.054687 7.882812.125l23.972657-20.238281c1.675781-1.414063 2.449218-3.632813 2.007812-5.785157l-11.660156-57.171875c-.015625-.082031-.050782-.183594-.070313-.265625l5.203125-22.519531h34.089844c12.738281.003906 24.882812 5.386719 33.441406 14.820312 8.5625 9.433594 12.742188 22.039063 11.511719 34.71875zm0 0" fill="url(#linear2)"/></svg>