<svg height="487pt" viewBox="-1 0 487 487.92567" width="487pt" xmlns="http://www.w3.org/2000/svg" xmlns:xlink="http://www.w3.org/1999/xlink"><linearGradient id="lg1"><stop offset="0" stop-color="#00efd1"/><stop offset="1" stop-color="#00acea"/></linearGradient><linearGradient id="linear0" gradientUnits="userSpaceOnUse" x1="242.788738" x2="242.788738" xlink:href="#lg1" y1="24.905061" y2="438.403061"/><linearGradient id="linear1" gradientUnits="userSpaceOnUse" x1="356.146738" x2="356.146738" xlink:href="#lg1" y1="24.905061" y2="438.403061"/><linearGradient id="linear2" gradientUnits="userSpaceOnUse" x1="166.571738" x2="166.571738" xlink:href="#lg1" y1="24.905061" y2="438.403061"/><linearGradient id="linear3" gradientUnits="userSpaceOnUse" x1="166.331738" x2="166.331738" xlink:href="#lg1" y1="24.905061" y2="438.403061"/><path d="m480.53125 353.203125-21.828125-5.480469c-1.070313-9.601562-3.46875-19.007812-7.128906-27.949218l16.695312-14.828126c2.320313-2.0625 2.683594-5.554687.839844-8.050781l-21.277344-28.796875c-1.835937-2.484375-5.253906-3.167968-7.90625-1.582031l-19.164062 11.460937c-7.496094-6.167968-15.824219-11.25-24.742188-15.085937l1.230469-22.363281c.171875-3.089844-2.03125-5.800782-5.089844-6.261719l-34.292968-5.195313c-3.054688-.460937-5.960938 1.46875-6.714844 4.460938l-5.5 21.730469c-9.667969 1.023437-19.136719 3.40625-28.136719 7.082031l-14.875-16.613281c-2.058594-2.300781-5.527344-2.664063-8.019531-.839844l-11.667969 8.617187c-10.101563-4.328124-20.980469-6.53125-31.964844-6.484374h-46.289062c-1.894531-.023438-3.6875.859374-4.824219 2.375l-34.195312 46.25-32.800782-46.140626c-1.128906-1.574218-2.949218-2.5-4.886718-2.484374h-46.269532c-22.882812-.035157-44.71875 9.59375-60.125 26.515624-15.402344 16.921876-22.945312 39.566407-20.765625 62.34375v70.125c.070313 3.34375 2.804688 6.019532 6.152344 6.015626h236.054687c-2.304687 2.058593-2.660156 5.539062-.816406 8.023437l21.277344 28.789063c1.835938 2.480468 5.25 3.164062 7.898438 1.582031l19.207031-11.492188c7.496093 6.152344 15.808593 11.238281 24.699219 15.109375l-1.230469 22.367188c-.171875 3.089844 2.035156 5.800781 5.09375 6.261718l34.292969 5.195313c3.050781.460937 5.957031-1.46875 6.714843-4.460937l5.5-21.730469c9.648438-1.066407 19.105469-3.460938 28.097657-7.117188l14.910156 16.648438c2.058594 2.300781 5.527344 2.664062 8.015625.835937l28.910156-21.199218c2.503906-1.835938 3.191406-5.277344 1.589844-7.933594l-11.488281-19.054688c6.1875-7.453125 11.28125-15.742187 15.136718-24.625l22.484375 1.230469c3.085938.175781 5.800781-2.027344 6.257813-5.085937l5.410156-35.4375c.46875-3.058594-1.46875-5.96875-4.46875-6.726563zm-366.117188-94.179687h10.480469l31.421875 44.199218-46.269531 19.070313zm44.417969 141h-146v-64.4375c0-.199219.066407-.398438.046875-.605469-1.949218-19.4375 4.429688-38.792969 17.550782-53.269531 13.121093-14.476563 31.757812-22.71875 51.292968-22.6875h20.664063l-4.972657 72.046874c-.136718 2.066407.804688 4.054688 2.488282 5.257813 1.683594 1.207031 3.867187 1.457031 5.78125.660156l53.148437-21.886719zm92.15625-141c6.894531-.023438 13.757813.984374 20.351563 3l-5.628906 4.101562c-2.503907 1.828125-3.191407 5.265625-1.589844 7.921875l11.511718 19.078125c-6.164062 7.453125-11.265624 15.726562-15.152343 24.582031l-22.488281-1.230469c-1.40625-.046874-2.785157.394532-3.898438 1.253907l-3.808594-58.707031zm-43.261719 0h10.53125l4.113282 63.324218-47.355469-19.082031zm-36.894531 141v-85.59375l55.898438 22.558593c.714843.289063 1.476562.4375 2.246093.4375.113282 0 .226563-.019531.34375-.027343l-2.992187 19.601562c-.46875 3.058594 1.46875 5.96875 4.46875 6.722656l21.824219 5.480469c1.03125 9.621094 3.421875 19.046875 7.101562 27.992187l-3.179687 2.828126zm297.71875-11.851563-21.320312-1.164063c-2.601563-.136718-4.992188 1.417969-5.929688 3.847657-3.992187 10.433593-9.894531 20.03125-17.40625 28.300781-1.796875 1.960938-2.085937 4.871094-.710937 7.148438l10.914062 18.097656-20.101562 14.738281-14.140625-15.792969c-1.742188-1.945312-4.539063-2.542968-6.921875-1.476562-10.21875 4.65625-21.195313 7.429687-32.398438 8.1875-2.605468.160156-4.804687 1.988281-5.445312 4.515625l-5.214844 20.601562-23.519531-3.5625 1.164062-21.199219c.144531-2.613281-1.417969-5.015624-3.863281-5.941406-10.464844-4.039062-20.113281-9.933594-28.484375-17.402344-1.957031-1.722656-4.804687-1.984374-7.046875-.644531l-18.214844 10.898438-14.777344-20.011719 15.824219-14.058594c1.988281-1.765625 2.574219-4.625 1.449219-7.03125-4.707031-10.121094-7.480469-21.03125-8.175781-32.167968-.164063-2.605469-1.996094-4.808594-4.527344-5.445313l-20.6875-5.195313 3.765625-24.65625 21.3125 1.164063c2.605469.140625 5-1.414063 5.933594-3.847656 4.058594-10.433594 9.976562-20.042969 17.464844-28.367188 1.746093-1.960937 2.007812-4.832031.652343-7.078125l-10.914062-18.105468 20.101562-14.738282 14.140625 15.796875c1.761719 1.96875 4.605469 2.550781 7 1.4375 10.175782-4.695312 21.132813-7.457031 32.316406-8.152343 2.601563-.160157 4.804688-1.984376 5.445313-4.515626l5.214844-20.597656 23.519531 3.558594-1.167969 21.203125c-.144531 2.609375 1.417969 5.011719 3.863281 5.9375 10.464844 3.972656 20.101563 9.855469 28.417969 17.347656 1.957031 1.773438 4.847657 2.0625 7.113281.703125l18.21875-10.898437 14.785157 20.007812-15.828125 14.058594c-1.960938 1.746094-2.5625 4.558594-1.484375 6.953125 4.667969 10.164062 7.449219 21.089844 8.214843 32.25.160157 2.609375 1.992188 4.8125 4.53125 5.449219l20.683594 5.195312zm0 0" fill="url(#linear0)"/><path d="m367.933594 281.273438c-42.75-6.464844-82.832032 22.914062-89.335938 65.515624-3.101562 20.527344 2.089844 41.445313 14.425782 58.140626 12.335937 16.699218 30.804687 27.804687 51.335937 30.875 3.917969.59375 7.871094.890624 11.832031.890624 38.085938 0 71.601563-27.769531 77.5-66.40625 3.101563-20.527343-2.089844-41.445312-14.425781-58.140624-12.332031-16.699219-30.800781-27.808594-51.332031-30.875zm53.898437 87.199218c-4.164062 26.511719-23.851562 47.929688-49.921875 54.304688-26.070312 6.375-53.417968-3.539063-69.347656-25.140625-10.425781-14.074219-14.785156-31.734375-12.101562-49.042969 4.167968-26.511719 23.855468-47.925781 49.925781-54.300781 26.070312-6.375 53.414062 3.539062 69.34375 25.140625 10.429687 14.074218 14.785156 31.734375 12.101562 49.042968zm0 0" fill="url(#linear1)"/><path d="m91.445312 194.402344 71.613282 46.875c1.980468 1.296875 4.539062 1.308594 6.53125.027344l72.964844-46.878907c1.734374-1.117187 2.777343-3.046875 2.757812-5.109375l-1.351562-131.347656c0-1.011719-.023438-2.039062-.078126-3.054688-.898437-17.207031-9.527343-33.085937-23.476562-43.199218-14.4375-10.707032-32.933594-14.316406-50.335938-9.828125l-39.617187 10.136719h-13.632813c-16.234374 0-28.988281 13.539062-28.988281 29.769531v36.058593l1.125 111.601563c-.0625 1.964844.875 3.828125 2.488281 4.949219zm141.832032-8.269532-66.902344 42.972657-65.683594-43-.5-41.746094 1.074219.832031c4.980469 3.765625 11.042969 5.808594 17.285156 5.832032h14.390625c8.03125-.015626 15.691406-3.394532 21.121094-9.3125.019531-.019532.039062-.050782.054688-.070313 3.148437-3.410156 7.582031-5.351563 12.222656-5.355469 4.644531 0 9.078125 1.9375 12.230468 5.34375.019532.023438.039063.0625.058594.085938 5.429688 5.917968 13.089844 9.292968 21.121094 9.308594h14.390625c6.242187-.019532 12.308594-2.066407 17.292969-5.828126l1.414062-1.078124zm-133.445313-144.339843c0-9.613281 7.371094-17.769531 16.988281-17.769531h14.398438c.503906.054687 1.007812.046874 1.507812-.027344l40.363282-10.414063c13.894531-3.617187 28.675781-.761719 40.222656 7.765625 7.425781 5.417969 13.042969 12.953125 16.109375 21.617188-12.570313 33.679687-41.199219 29.300781-71.707031 24.644531-20.960938-3.191406-43.882813-6.683594-57.882813 6.238281zm55.847657 37.695312c26.160156 3.984375 57.664062 8.773438 76.335937-16.0625l.675781 65.746094-8.5 6.457031c-2.894531 2.191406-6.417968 3.382813-10.046875 3.398438h-14.394531c-4.644531-.011719-9.074219-1.957032-12.226562-5.367188-.019532-.023437-.039063-.054687-.058594-.074218-5.425782-5.921876-13.085938-9.292969-21.117188-9.296876-8.03125 0-15.695312 3.371094-21.121094 9.289063-.019531.019531-.035156.058594-.054687.078125-3.152344 3.414062-7.582031 5.359375-12.230469 5.371094h-14.390625c-3.628906-.015625-7.15625-1.207032-10.050781-3.398438l-8.5-6.445312-.375-30.996094c5.695312-25.101562 24.078125-23.570312 56.054688-18.699219zm0 0" fill="url(#linear2)"/><path d="m180.832031 174.023438h-29c-3.3125 0-6 2.6875-6 6s2.6875 6 6 6h29c3.3125 0 6-2.6875 6-6s-2.6875-6-6-6zm0 0" fill="url(#linear3)"/></svg>