<svg height="488pt" viewBox="-5 0 488 488.53611" width="488pt" xmlns="http://www.w3.org/2000/svg" xmlns:xlink="http://www.w3.org/1999/xlink"><linearGradient id="lg1"><stop offset="0" stop-color="#00efd1"/><stop offset="1" stop-color="#00acea"/></linearGradient><linearGradient id="linear0" gradientUnits="userSpaceOnUse" x1="239.576008" x2="239.576008" xlink:href="#lg1" y1="25.178106" y2="438.676106"/><linearGradient id="linear1" gradientUnits="userSpaceOnUse" x1="356.759008" x2="356.759008" xlink:href="#lg1" y1="25.178106" y2="438.676106"/><linearGradient id="linear2" gradientUnits="userSpaceOnUse" x1="412.057008" x2="412.057008" xlink:href="#lg1" y1="25.178106" y2="438.676106"/><linearGradient id="linear3" gradientUnits="userSpaceOnUse" x1="167.612008" x2="167.612008" xlink:href="#lg1" y1="25.178106" y2="438.676106"/><linearGradient id="linear4" gradientUnits="userSpaceOnUse" x1="167.605008" x2="167.605008" xlink:href="#lg1" y1="25.178106" y2="438.676106"/><path d="m376.589844 250.117188c-26.378906-4.0625-53.363282.78125-76.683594 13.761718-13.636719-9.503906-29.859375-14.59375-46.480469-14.582031h-46.800781c-1.921875.046875-3.707031.996094-4.828125 2.558594l-34.621094 46.917969-33.207031-46.859376c-1.117188-1.605468-2.933594-2.578124-4.890625-2.617187h-46.773437c-23.207032.0625-45.308594 9.910156-60.871094 27.125-15.367188 17.210937-22.90625 40.023437-20.824219 63v70.894531c.0625 3.335938 2.800781 6.003906 6.136719 5.980469h241.308594c3.621093 8.203125 8.117187 15.992187 13.414062 23.230469 18.894531 25.792968 47.328125 42.949218 78.957031 47.632812 6.007813.914063 12.078125 1.375 18.15625 1.375 58.429688 0 109.847657-42.597656 118.894531-101.871094 4.753907-31.488281-3.207031-63.578124-22.128906-89.191406-18.925781-25.613281-47.257812-42.648437-78.757812-47.355468zm-261.300782 11.179687h10.691407l31.835937 44.957031-46.949218 19.257813zm45.316407 143h-148v-65.167969c.023437-.199218.035156-.402344.039062-.601562-1.984375-19.710938 4.449219-39.339844 17.71875-54.050782 13.265625-14.710937 32.132813-23.128906 51.941407-23.179687h20.960937l-5.03125 73.089844c-.144531 2.085937.789063 4.101562 2.476563 5.339843 1.675781 1.222657 3.867187 1.492188 5.792968.710938l54.101563-22.234375zm49.050781-143h10.742188l4.167968 64.363281-48.050781-19.449218zm33.914062 143h-70.964843v-86.539063l56.324219 22.726563c1.910156.773437 4.085937.507813 5.757812-.699219 1.679688-1.257812 2.609375-3.28125 2.472656-5.375l-4.738281-73.113281h21c12.414063 0 24.601563 3.332031 35.285156 9.652344-42.335937 29.984375-60.554687 83.8125-45.136719 133.347656zm222.042969-19.441406c-8.140625 53.34375-54.429687 91.683593-107.035156 91.683593-5.476563-.003906-10.945313-.417968-16.355469-1.238281-28.347656-4.226562-53.851562-19.554687-70.886718-42.601562-17.035157-23.050781-24.207032-51.925781-19.929688-80.265625 8.140625-53.347656 54.429688-91.683594 107.035156-91.683594 5.476563 0 10.941406.414062 16.355469 1.234375 28.347656 4.226563 53.851563 19.554687 70.886719 42.605469 17.035156 23.046875 24.207031 51.925781 19.929687 80.265625zm0 0" fill="url(#linear0)"/><path d="m420.03125 364.296875h-57.425781v-57.378906c.019531-1.582031-.597657-3.105469-1.707031-4.230469-1.113282-1.128906-2.628907-1.765625-4.210938-1.769531-18.390625-.058594-36.039062 7.253906-49 20.300781-22.171875 22.1875-26.683594 56.496094-11 83.660156 15.683594 27.164063 47.65625 40.410156 77.957031 32.296875s51.375-35.566406 51.382813-66.933593c0-1.585938-.632813-3.105469-1.757813-4.21875-1.125-1.117188-2.652343-1.738282-4.238281-1.726563zm-22.742188 46.460937c-16.402343 16.347657-41.03125 21.214844-62.425781 12.34375-21.390625-8.875-35.339843-29.746093-35.359375-52.90625-.007812-15.175781 5.980469-29.742187 16.660156-40.523437 9.238282-9.292969 21.40625-15.105469 34.441407-16.445313v56.957032c.070312 3.367187 2.796875 6.070312 6.164062 6.113281h56.949219c-1.382812 13.027344-7.179688 25.1875-16.429688 34.460937zm0 0" fill="url(#linear1)"/><path d="m429.210938 298.066406c-12.945313-12.933594-30.488282-20.203125-48.785157-20.222656-1.574219.007812-3.078125.648438-4.171875 1.777344s-1.691406 2.648437-1.648437 4.222656v63.261719c0 3.3125 2.328125 6.191406 5.640625 6.191406h63.257812c3.335938-.046875 6.011719-2.765625 6-6.101563-.015625-18.363281-7.285156-35.980468-20.222656-49.011718-.019531-.023438-.042969-.09375-.070312-.117188zm-42.605469-7.910156c4.011719.425781 7.96875 1.273438 11.804687 2.527344l-11.804687 11.804687zm0 31.300781 23.261719-23.4375c2.28125 1.351563 4.46875 2.855469 6.554687 4.5l-29.816406 29.902344zm7.925781 19.839844 30.125-30.222656c1.652344 2.058593 3.160156 4.226562 4.523438 6.488281l-23.6875 23.734375zm42.664062 0h-14.734374l12.101562-12.101563c1.300781 3.929688 2.183594 7.988282 2.632812 12.101563zm0 0" fill="url(#linear2)"/><path d="m92.167969 196.339844 72.398437 47.390625c1.980469 1.296875 4.539063 1.304687 6.53125.027343l73.765625-47.394531c1.734375-1.113281 2.777344-3.042969 2.753907-5.105469l-1.363282-132.789062c0-1.03125-.027344-2.070312-.078125-3.085938-.910156-17.378906-9.621093-33.414062-23.707031-43.628906-14.59375-10.78125-33.277344-14.386718-50.835938-9.816406l-40.058593 10.359375h-13.789063c-16.378906 0-30.179687 13.441406-30.179687 29.8125v36.457031l1.605469 112.824219c.121093 2.03125 1.222656 3.878906 2.957031 4.949219zm143.417969-8.292969-67.703126 43.511719-66.46875-43.511719-.511718-42.375 1.191406.832031c5.03125 3.773438 11.152344 5.804688 17.441406 5.792969h14.550782c8.09375.015625 15.824218-3.363281 21.308593-9.3125 3.214844-3.472656 7.730469-5.445313 12.460938-5.445313 4.730469-.003906 9.25 1.96875 12.464843 5.4375 5.484376 5.949219 13.207032 9.328126 21.300782 9.320313h14.546875c6.289062.011719 12.410156-2.019531 17.441406-5.789063l1.535156-1.128906zm-.59375-57.566406-8.621094 6.457031c-2.945313 2.199219-6.527344 3.375-10.199219 3.359375h-14.550781c-4.730469.019531-9.253906-1.949219-12.464844-5.421875-5.484375-5.953125-13.210938-9.335938-21.304688-9.339844-8.09375 0-15.820312 3.382813-21.308593 9.332032-3.210938 3.472656-7.730469 5.445312-12.457031 5.429687h-14.550782c-3.675781.015625-7.253906-1.164063-10.199218-3.359375l-8.617188-6.488281-.382812-31.351563c5.769531-25.445312 24.367187-23.882812 56.746093-18.957031 26.480469 4.035156 58.378907 8.902344 77.226563-16.359375zm-135.386719-88.371094c0-9.753906 8.421875-17.8125 18.179687-17.8125h14.554688c.507812.019531 1.015625-.023437 1.511718-.132813l40.800782-10.582031c14.058594-3.671875 29.023437-.792969 40.714844 7.832031 7.527343 5.484376 13.21875 13.117188 16.324218 21.894532-12.722656 34.125-42.164062 29.683594-73.046875 24.976562-21.21875-3.234375-44.039062-6.777344-59.039062 6.386719zm0 0" fill="url(#linear3)"/><path d="m181.605469 175.296875h-28c-3.3125 0-6 2.6875-6 6s2.6875 6 6 6h28c3.3125 0 6-2.6875 6-6s-2.6875-6-6-6zm0 0" fill="url(#linear4)"/></svg>