<svg height="482pt" viewBox="0 -5 482.00002 482" width="482pt" xmlns="http://www.w3.org/2000/svg" xmlns:xlink="http://www.w3.org/1999/xlink"><linearGradient id="lg1"><stop offset="0" stop-color="#00efd1"/><stop offset="1" stop-color="#00acea"/></linearGradient><linearGradient id="linear0" gradientUnits="userSpaceOnUse" x1="364" x2="364" xlink:href="#lg1" y1="24.770131" y2="458.414131"/><linearGradient id="linear1" gradientUnits="userSpaceOnUse" x1="123.072" x2="123.072" xlink:href="#lg1" y1="24.770131" y2="458.414131"/><linearGradient id="linear2" gradientUnits="userSpaceOnUse" x1="121.5" x2="121.5" xlink:href="#lg1" y1="24.770131" y2="458.414131"/><path d="m476 0h-88.722656c-3.367188-.0195312-6.144532 2.632812-6.277344 6v42h-61.238281c-3.3125 0-5.761719 3.019531-5.761719 6.332031v175.667969h-68v12h68v175.667969c0 3.3125 2.449219 6.332031 5.761719 6.332031h61.238281v42c.132812 3.367188 2.910156 6.019531 6.277344 6h88.722656c3.3125 0 6-2.6875 6-6v-94.894531c.007812-3.332031-2.664062-6.054688-6-6.105469h-88.722656c-3.386719.027344-6.15625 2.71875-6.277344 6.105469v40.894531h-55v-170h55v41.445312c0 3.316407 2.964844 5.554688 6.277344 5.554688h88.722656c3.3125 0 6-2.238281 6-5.554688v-94.890624c0-3.316407-2.6875-5.554688-6-5.554688h-88.722656c-3.3125 0-6.277344 2.238281-6.277344 5.554688v41.445312h-55v-170h55v40.894531c.121094 3.386719 2.890625 6.078125 6.277344 6.105469h88.722656c3.335938-.050781 6.007812-2.773438 6-6.105469v-94.894531c0-3.3125-2.6875-6-6-6zm-83 377h77v83h-77zm0-182h77v82h-77zm77-100h-77v-83h77zm0 0" fill="url(#linear0)"/><path d="m123.070312 112.929688c-67.96875 0-123.070312 55.101562-123.070312 123.070312 0 67.972656 55.101562 123.070312 123.070312 123.070312 67.972657 0 123.074219-55.097656 123.074219-123.070312-.078125-67.9375-55.132812-122.996094-123.074219-123.070312zm-64.050781 162.34375c-.753906-7.523438 1.738281-15.015626 6.851563-20.59375 5.152344-5.597657 12.4375-8.753907 20.046875-8.679688h2.925781l8.5625 26.101562c.722656 2.160157 2.628906 3.710938 4.890625 3.980469.300781.019531.601563.019531.898437 0l-7.128906 66.367188c-.0625.4375-.078125.878906-.042968 1.320312-13.289063-3.335937-25.839844-9.105469-37.023438-17.019531v-50.871094c0-.199218.039062-.402344.019531-.605468zm55.15625 71.441406-5.875-5.875 8.253907-76.832032 6.132812-6.859374 6.960938 7.402343 8.195312 76.289063-5.875 5.875c-2.933594.230468-5.902344.351562-8.902344.355468-3 .003907-5.964844-.113281-8.890625-.355468zm72.875-71.441406c-.019531.203124-.050781.402343-.050781.605468v50.871094c-11.15625 7.90625-23.683594 13.671875-36.949219 17 .058594-.441406.0625-.890625.019531-1.332031l-7.125-66.394531c.4375.007812.875-.03125 1.304688-.117188 2.015625-.335938 3.703125-1.71875 4.425781-3.632812l9.523438-26.273438h2.042969c7.578124-.097656 14.839843 3.042969 19.960937 8.632812 5.121094 5.59375 7.613281 13.101563 6.851563 20.640626zm11.949219 41.675781v-40.777344c1.011719-10.871094-2.628906-21.660156-10.015625-29.695313-7.386719-8.035156-17.832031-12.570312-28.75-12.476562h-6.257813c-2.496093-.089844-4.765624 1.425781-5.648437 3.761719l-7.628906 21.128906-13.644531-14.566406c-1.128907-1.285157-2.75-2.027344-4.460938-2.035157-1.710938-.003906-3.339844.71875-4.480469 1.996094l-12.519531 13.980469-6.695312-20.332031c-.824219-2.421875-3.140626-4.019532-5.699219-3.933594h-7.28125c-10.933594-.101562-21.398438 4.421875-28.8125 12.453125-7.414063 8.035156-11.085938 18.828125-10.105469 29.71875v40.773437c-21-20.273437-35.050781-49.058593-35.050781-80.945312.183593-61.21875 49.863281-110.746094 111.082031-110.746094 61.214844 0 110.894531 49.527344 111.078125 110.746094.199219 30.71875-12.546875 60.101562-35.109375 80.949219zm0 0" fill="url(#linear1)"/><path d="m159 186.5c0-20.710938-16.789062-37.5-37.5-37.5s-37.5 16.789062-37.5 37.5v13c0 20.710938 16.789062 37.5 37.5 37.5s37.5-16.789062 37.5-37.5zm-12 13c0 14.082031-11.417969 25.5-25.5 25.5s-25.5-11.417969-25.5-25.5v-13c0-14.082031 11.417969-25.5 25.5-25.5s25.5 11.417969 25.5 25.5zm0 0" fill="url(#linear2)"/></svg>